<svg width="59" height="66" viewBox="0 0 59 66" fill="none" xmlns="http://www.w3.org/2000/svg">
<path d="M8.2929 -2.69835e-07H0.816022C0.365415 -2.69835e-07 2.58991e-07 0.366614 2.58991e-07 0.8187V7.42397C2.58991e-07 7.74261 0.18442 8.03243 0.472639 8.1667L4.211 9.90709C4.32214 9.95883 4.43883 9.98339 4.55389 9.98323C4.67335 9.98323 4.79053 9.95621 4.8976 9.90644L4.89792 9.90709L8.63628 8.1667C8.9245 8.03243 9.10892 7.74261 9.10892 7.42397V0.8187C9.10892 0.366777 8.74351 -2.69835e-07 8.2929 -2.69835e-07ZM7.47688 6.90131L4.55454 8.26199L1.6322 6.90131V1.63756H7.47704V6.90131H7.47688Z" transform="translate(33.4941 18.667)" fill="white"/>
<path d="M58.9275 48.2765C58.7101 44.1577 51.8306 17.7843 51.2574 15.2381C50.7255 12.8747 49.8561 11.103 48.4937 9.70536C48.481 9.68964 45.1676 6.96517 37.2909 3.60932L35.3317 0.39183C35.1785 0.139834 34.9038 -0.00523968 34.6166 0.00130992V0H29.4998H24.383V0.00130992C24.0956 -0.00523968 23.8213 0.139834 23.6679 0.39183L21.7088 3.60932C13.4844 7.14889 10.5196 9.68932 10.5069 9.70487C9.14416 11.1026 8.43944 12.4123 7.74256 15.2383C7.11781 17.7722 0.289837 44.1577 0.0724492 48.2765C-0.235844 54.1269 0.535459 59.4908 0.601068 59.9328L0.937105 63.5462C0.976274 63.967 1.32831 64.2888 1.74954 64.2888H6.98317C7.36425 64.2888 7.69474 64.024 7.77895 63.651L8.5749 60.1293C8.73109 59.8417 9.16113 59.0201 9.64601 57.8349L9.61973 60.2472C9.61386 60.47 9.6625 61.2306 10.4844 62.1154C12.1303 63.8874 16.7653 66 29.4996 66C42.2341 66 46.8692 63.8876 48.5149 62.1154C49.3368 61.2306 49.3853 60.47 49.3794 60.2472L49.3533 57.8343C49.8383 59.0198 50.2684 59.8417 50.4246 60.1293L51.2205 63.651C51.3049 64.0238 51.6352 64.2888 52.0163 64.2888H57.2499C57.6712 64.2888 58.0233 63.967 58.0624 63.5462L58.3982 59.9328C58.4645 59.491 59.236 54.127 58.9275 48.2765ZM34.9094 2.83892L35.8834 4.4385C35.4362 7.28709 33.4391 9.65673 32.4137 10.7109L30.685 8.52299C33.0896 6.74707 34.3107 4.44047 34.9094 2.83892ZM29.5 1.6374H33.5918C33.1708 3.00004 32.0791 5.55193 29.5001 7.35831C26.9355 5.55996 25.8375 3.0025 25.4117 1.6374H29.5ZM24.0906 2.83892C24.689 4.4403 25.9103 6.74707 28.3151 8.52283L26.5858 10.712C25.5607 9.66132 23.5651 7.2974 23.1167 4.4385L24.0906 2.83892ZM6.33182 62.6515H2.49326L2.30753 60.654H6.78325L6.33182 62.6515ZM7.31317 59.0165H2.12572C1.91943 57.3568 1.46001 52.9632 1.70253 48.3629C1.91095 44.411 8.75557 18.172 9.33478 15.5989C9.71586 13.9046 10.2541 12.6057 11.0584 11.5486C11.329 12.1739 11.4857 13.0443 11.495 14.042C11.4951 14.0617 11.4956 24.3365 11.4956 24.3365L9.71766 51.526C9.23359 54.9697 7.85093 57.9532 7.31317 59.0165ZM11.2519 60.274L11.3458 51.6415L13.1259 24.4171C13.127 24.3992 13.1273 14.0628 13.1272 14.0572C13.1272 14.0572 13.1964 11.6326 12.2496 10.3084C16.3797 7.73475 20.0867 6.10128 21.6489 5.41816C22.6108 9.50363 25.9867 12.4174 26.143 12.5476C26.5783 12.9099 26.9798 12.8092 27.3098 12.4313L28.6838 10.6921V64.3596C19.9036 64.294 15.6026 63.1717 13.5326 62.2256C11.431 61.2651 11.2519 60.2743 11.2519 60.274ZM47.748 60.2753C47.7374 60.3542 47.569 61.2651 45.4672 62.2256C43.3973 63.1717 39.0962 64.294 30.316 64.3596V10.6919L31.6903 12.4313C32.0598 12.8867 32.5849 12.8092 32.8571 12.5476C33.004 12.4064 36.3893 9.50363 37.3511 5.41816C40.8056 6.83156 46.2815 9.91708 46.7507 10.3086C46.0207 11.4841 45.8826 13.0774 45.8731 14.0243C45.8731 14.0243 45.873 24.3991 45.8741 24.4171L47.6545 51.6415L47.748 60.2738C47.748 60.2743 47.748 60.2748 47.748 60.2753ZM56.507 62.6515H52.6684L52.217 60.654H56.6926L56.507 62.6515ZM56.8742 59.0165H51.6871C51.149 57.9528 49.7667 54.9695 49.2825 51.526L47.5043 24.3365C47.5043 24.3365 47.5048 14.0612 47.505 14.0409C47.5149 13.0439 47.6718 12.1739 47.9419 11.5489C48.7458 12.606 49.2841 13.9048 49.6653 15.5989C50.2445 18.172 57.0892 44.411 57.2976 48.3629C57.5399 52.9581 57.0804 57.3558 56.8742 59.0165Z" fill="#DBA750"/>
</svg>
