<svg width="60" height="58" viewBox="0 0 60 58" fill="none" xmlns="http://www.w3.org/2000/svg">
<path d="M60 53.0604C58.3699 54.4738 56.4465 55.2404 54.4176 55.7914C53.6905 55.995 52.9282 56.0909 52.1776 56.1747C51.4036 56.2705 51.1456 56.0789 50.958 55.3123C50.0901 51.7188 49.2223 48.1254 48.3661 44.5319C48.2137 43.909 48.4482 43.4419 48.9642 43.2982C49.4568 43.1544 49.9259 43.4419 50.0901 44.0648C50.4419 45.4542 50.7586 46.8437 51.0987 48.2332C51.5795 50.2216 52.0604 52.2099 52.5646 54.2941C54.5701 54.0306 56.3761 53.276 58.1236 52.2459C55.4027 39.561 52.6819 26.9 49.9611 14.2271C48.8001 18.9705 47.6507 23.6659 46.5249 28.3494C46.4663 28.5889 46.4663 28.8644 46.5249 29.092C47.4045 32.7813 48.284 36.4706 49.1753 40.1599C49.3513 40.8666 49.1284 41.3577 48.589 41.5134C48.0847 41.6572 47.639 41.3098 47.4514 40.6031C47.4279 40.5072 47.4045 40.4114 47.381 40.3156C46.7946 37.884 46.2082 35.4524 45.6219 33.0209C45.6101 32.961 45.5867 32.9131 45.4577 32.8292C45.3052 33.5359 45.1176 34.2307 45.0003 34.9374C44.7188 36.5784 44.3553 38.2314 44.238 39.8844C44.109 41.8728 44.7657 43.7773 45.3404 45.6579C46.4193 49.1076 47.5804 52.5214 48.7297 55.9471C49.105 57.0611 48.8939 57.5163 47.7328 57.648C43.98 58.0433 40.2154 58.2469 36.4743 57.4803C36.3922 57.4684 36.3101 57.4684 36.2514 57.4324C34.9262 56.7736 33.5775 57.0491 32.2054 57.2048C30.0475 57.4444 27.8779 57.3965 25.72 57.0611C25.4971 57.0252 25.2274 56.9773 25.028 57.0611C22.8819 57.8397 20.6419 58.0194 18.3902 57.9714C16.3261 57.9235 14.2503 57.7918 12.1979 57.6361C11.2011 57.5642 10.9548 57.0371 11.2832 56.0669C12.4794 52.4735 13.6991 48.88 14.8132 45.2626C15.3762 43.4299 16.0212 41.5493 15.7983 39.5969C15.5872 37.7043 15.1651 35.8358 14.8367 33.9552C14.7663 33.5719 14.6608 33.2005 14.4731 32.8292C13.8281 35.4644 13.1831 38.0996 12.5498 40.7348C11.4005 45.4902 10.2629 50.2335 9.11357 54.9889C8.86728 55.995 8.65619 56.1508 7.63588 56.0549C5.09097 55.8034 2.75716 54.8931 0.564083 53.5515C0.0832477 53.252 -0.0809399 52.8448 0.0363369 52.2818C1.70167 44.3522 3.40218 36.4227 5.11443 28.4931C5.12615 28.4213 5.13788 28.3374 5.16134 28.2655C5.33725 27.7385 5.77118 27.439 6.22856 27.5708C6.73285 27.7145 6.99086 28.0859 6.88531 28.6129C6.68594 29.7029 6.45138 30.7929 6.21683 31.8829C4.79778 38.4829 3.37873 45.0949 1.94795 51.6949C1.86586 52.0782 1.91277 52.2818 2.29978 52.4854C3.75401 53.2401 5.26689 53.7791 6.86185 54.1145C7.02604 54.1504 7.20195 54.1384 7.41305 54.1504C7.96425 51.8865 8.50373 49.6466 9.0432 47.4187C10.5209 41.3218 11.9986 35.2129 13.4645 29.116C13.5232 28.8764 13.5232 28.6009 13.4645 28.3733C12.4677 24.2169 11.4591 20.0725 10.4623 15.916C10.3332 15.377 10.2394 14.826 10.0283 14.263C9.84068 15.1015 9.65304 15.94 9.47713 16.7785C8.9142 19.4017 8.37472 22.0249 7.77661 24.6481C7.69452 25.0075 7.41305 25.4507 7.10813 25.6064C6.42793 25.9298 5.81809 25.2351 6.00573 24.3966C6.49829 22.0608 7.00258 19.7371 7.49515 17.4013C8.12844 14.4307 8.7031 11.4362 9.40676 8.48954C9.57095 7.80679 10.087 7.13601 10.5913 6.62094C12.1159 5.07576 13.9923 4.0097 15.8804 3.00353C17.71 2.02132 19.5864 1.13493 21.4511 0.224591C21.7326 0.0808528 22.0844 0.00898364 22.401 0.00898364C27.4674 -0.00299455 32.522 -0.00299455 37.5884 0.00898364C37.905 0.00898364 38.2451 0.092831 38.5383 0.224591C41.5758 1.60208 44.5546 3.0754 47.3224 4.96795C48.0143 5.44708 48.6711 5.9861 49.3043 6.54908C50.0315 7.1959 50.5006 7.98646 50.6882 9.02856C51.1573 11.6039 51.7672 14.1672 52.3184 16.7305C54.0541 24.8278 55.7898 32.937 57.5372 41.0343C58.3229 44.7116 59.1087 48.3769 59.8945 52.0542C59.9062 52.1261 59.9648 52.186 60 52.2579C60 52.4974 60 52.7849 60 53.0604ZM46.7125 55.9112C46.6539 55.7195 46.607 55.5519 46.5483 55.3842C45.4577 51.9824 44.3084 48.6045 43.3115 45.1668C42.8659 43.6336 42.4906 42.0165 42.4671 40.4354C42.4437 38.6626 42.7017 36.8539 43.1004 35.1171C44.3553 29.5951 45.786 24.1211 47.0292 18.5991C47.7211 15.5207 48.1902 12.3825 48.7883 9.29208C48.9291 8.57339 48.4951 8.20207 48.0847 7.83074C45.7626 5.74654 42.9714 4.45289 40.0864 2.93166C41.1184 5.23147 41.353 7.49535 41.2474 9.79517C41.1419 12.095 40.5907 14.3109 39.7815 16.491C39.9926 16.503 40.1333 16.5269 40.2623 16.5269C41.7048 16.5269 43.159 16.5269 44.6015 16.5269C45.4225 16.5269 45.7274 16.8383 45.7391 17.6768C45.7509 18.5752 45.7509 19.4735 45.7391 20.3719C45.7274 21.2583 45.4342 21.5458 44.5664 21.5458C42.3146 21.5458 40.0747 21.5577 37.8229 21.5458C37.4711 21.5458 37.26 21.6536 37.0841 21.965C36.8026 22.4681 36.5094 22.9592 36.1693 23.4263C35.8527 23.8576 35.3719 23.9294 34.9731 23.642C34.5744 23.3545 34.4571 22.9592 34.6799 22.492C34.7855 22.2764 34.9145 22.0848 35.0318 21.8692C35.9934 20.0245 37.0724 18.2398 37.8816 16.3233C39.3006 12.9814 39.9574 9.47175 39.1364 5.83038C38.9253 4.88411 38.5735 3.97376 38.2803 3.05144C38.2217 3.06342 38.163 3.0754 38.0927 3.09936C35.3601 11.556 32.6393 20.0006 29.9068 28.4572C30.2703 28.1697 30.5635 27.8583 30.8332 27.5229C31.5486 26.6485 32.2523 25.7621 32.9677 24.8997C33.2374 24.5763 33.6362 24.3846 33.9997 24.6721C34.246 24.8637 34.4806 25.2111 34.504 25.5105C34.5275 25.7741 34.2929 26.0975 34.1053 26.337C32.8856 27.8223 31.748 29.3915 30.3876 30.7211C28.9568 32.1225 27.9951 33.7156 27.5964 35.68C27.5847 35.7399 27.5378 35.7878 27.5378 35.8477C27.526 36.0753 27.4791 36.3269 27.5378 36.5425C28.6284 40.0281 29.6722 43.5377 30.8802 46.9755C31.6894 49.2513 32.7449 51.4314 33.7065 53.6473C34.0114 54.3301 34.504 54.8931 35.2194 55.1566C35.97 55.4201 36.7323 55.6956 37.518 55.8273C40.5672 56.3424 43.6282 56.1987 46.7125 55.9112ZM13.23 55.9232C13.9806 55.9711 14.6842 56.031 15.3879 56.0789C17.7921 56.2346 20.1845 56.1867 22.577 55.8273C24.7348 55.5159 26.2477 54.5097 26.6699 52.174C27.0452 50.0658 27.4557 47.9577 27.8779 45.8495C28.0538 44.9751 28.0069 44.1486 27.7254 43.2862C27.0217 41.1421 26.3767 38.9621 25.7552 36.794C25.6379 36.3987 25.6496 35.9196 25.7669 35.5243C26.3181 33.6437 26.9279 31.7632 27.5378 29.9065C27.655 29.5472 27.5964 29.3196 27.3853 29.0441C26.8106 28.3134 26.2477 27.5708 25.7082 26.8162C22.9171 22.9233 20.4894 18.8387 19.1407 14.1552C18.4254 11.6638 18.0735 9.12439 18.4957 6.5371C18.6716 5.4351 19 4.35707 19.2697 3.25507C19.2463 3.26705 19.1759 3.27903 19.1173 3.31496C17.6396 4.12948 16.115 4.86015 14.6959 5.77049C13.5584 6.48918 12.5381 7.39953 11.4943 8.26196C11.2949 8.42965 11.1425 8.77702 11.1542 9.04054C11.1659 9.65143 11.2363 10.2743 11.3653 10.8732C12.1041 14.4307 12.8078 18.0002 13.6287 21.5458C14.8836 26.9839 16.5137 32.3261 17.3464 37.8601C17.5223 39.0699 17.6748 40.3635 17.4402 41.5374C16.9125 44.1366 16.1971 46.7119 15.4582 49.2633C14.7898 51.4912 13.9923 53.6713 13.23 55.9232ZM24.0781 5.01587C25.7903 11.52 27.4909 17.9284 29.1796 24.3367C29.2265 24.3367 29.2735 24.3367 29.3204 24.3367C31.3962 17.9164 33.472 11.4961 35.5595 5.01587C31.6894 5.01587 27.9248 5.01587 24.0781 5.01587ZM21.6622 2.89573C21.5215 3.09936 21.4394 3.20716 21.3807 3.32694C20.5481 4.81224 20.2197 6.44127 20.1259 8.11822C20.0203 10.1904 20.3956 12.2028 21.0172 14.1672C22.272 18.1799 24.3713 21.7254 26.7286 25.1392C27.1038 25.6902 27.5026 26.2053 27.9834 26.8521C25.8607 18.8147 23.7849 10.9091 21.6622 2.89573ZM23.2806 1.81769C23.3627 2.12912 23.4683 2.4166 23.5034 2.70408C23.5503 3.02749 23.6911 3.12331 24.0077 3.12331C27.9482 3.11133 31.8887 3.12331 35.8292 3.11134C35.97 3.11134 36.1693 3.00353 36.228 2.88375C36.3687 2.54836 36.4508 2.18901 36.5681 1.80571C32.0998 1.81769 27.7137 1.81769 23.2806 1.81769ZM29.3204 48.3769C28.863 50.7845 28.476 53.2041 27.3384 55.3722C29.1093 55.3722 30.8215 55.3722 32.4634 55.3722C31.3962 53.0005 30.3641 50.7007 29.3204 48.3769ZM43.8979 19.7131C43.8979 19.2579 43.8979 18.8267 43.8979 18.3476C42.3029 18.3476 40.7549 18.3476 39.2068 18.3596C39.113 18.3596 38.9605 18.4314 38.9253 18.5153C38.7377 18.8866 38.5735 19.2819 38.3859 19.7131C40.274 19.7131 42.0801 19.7131 43.8979 19.7131Z" fill="#DBA750"/>
<path d="M1.4661 3.00667C2.27531 3.01865 2.96724 2.32391 2.96724 1.49741C2.95552 0.718832 2.26358 0.000140725 1.50128 0.000140725C0.727255 -0.0118375 -0.0115899 0.74279 0.000137777 1.52137C0.000137777 2.29995 0.692071 2.99469 1.4661 3.00667Z" transform="translate(28.2412 34.626)" fill="#DBA750"/>
<path d="M1.4661 3.00667C0.692071 2.99469 0.000137777 2.31193 0.000137777 1.52137C-0.0115899 0.730814 0.727255 -0.0118352 1.50128 0.000142953C2.26358 0.0121211 2.95552 0.718834 2.96724 1.49742C2.96724 2.31193 2.27531 3.00667 1.4661 3.00667Z" transform="translate(28.2412 34.626)" fill="#DBA750"/>
<path d="M1.7613 0H0V9.1406H1.7613V0Z" transform="matrix(0.970115 -0.242787 0.233296 0.97244 46.2021 35.5342)" fill="#DBA750"/>
<path d="M6.12697 0H0V1.7609H6.12697V0Z" transform="matrix(0.210509 -0.977534 0.975629 0.21917 4.94043 29.4365)" fill="#DBA750"/>
<path d="M4.70867 0H0V1.77248H4.70867V0Z" transform="matrix(0.585271 -0.81083 0.79885 0.60152 32.2754 25.7729)" fill="#DBA750"/>
<ellipse cx="1.875" cy="1.93333" rx="1.875" ry="1.93333" transform="translate(28.125 33.8335)" fill="#B7B7C3"/>
</svg>
