<svg width="80" height="31" viewBox="0 0 80 31" fill="none" xmlns="http://www.w3.org/2000/svg">
<path d="M1.90161 2.38806L3.55998 4.05194C3.79215 3.85228 4.05749 3.61933 4.28966 3.41966C3.49364 2.75411 2.79713 2.15512 2.39912 1.85562C2.53179 1.42301 2.36595 0.890571 1.96794 0.491241C1.43726 -0.0411996 0.674409 -0.174309 0.243231 0.258299C-0.154779 0.657629 -0.0552771 1.42301 0.475403 1.98873C0.90658 2.38806 1.5036 2.55445 1.90161 2.38806ZM0.64124 0.624354C0.807078 0.457966 1.23826 0.52452 1.56993 0.857296C1.90161 1.19007 1.96794 1.62268 1.8021 1.78907C1.63627 1.95545 1.20509 1.8889 0.873414 1.55613C0.541739 1.22335 0.475403 0.790742 0.64124 0.624354Z" transform="translate(36.208 21.1709)" fill="#020060"/>
<path d="M-5.06096e-07 0.831939L3.84743 4.69213C3.84743 4.69213 4.34494 3.22792 3.34992 2.22959C2.98507 1.86354 1.92371 0.965049 0.829187 1.01555e-06L-5.06096e-07 0.831939Z" transform="translate(41.3271 25.9561)" fill="#020060"/>
<path d="M7.12272 0.498406C6.72471 0.897737 6.55887 1.46346 6.69154 1.86279C5.53068 2.79456 1.45108 6.18886 0.62189 7.0208C-0.373135 8.01913 0.124377 9.48334 0.124377 9.48334L7.18905 2.39523C7.62023 2.56162 8.18408 2.39523 8.61526 1.96262C9.14594 1.43018 9.27861 0.664798 8.84743 0.23219C8.41625 -0.16714 7.6534 -0.0340339 7.12272 0.498406ZM8.18408 1.59657C7.8524 1.92934 7.42123 1.99589 7.25539 1.82951C7.08955 1.66312 7.15588 1.23052 7.48756 0.897741C7.81923 0.564966 8.25041 0.498406 8.41625 0.664794C8.58209 0.797904 8.51575 1.23051 8.18408 1.59657Z" transform="translate(36.5928 21.165)" fill="#020060"/>
<path d="M-5.06096e-07 3.22792V0H2.22222V0.499163H0.696517V1.29782H1.95688V1.76371H0.696517V2.72876H2.28856V3.22792H-5.06096e-07Z" transform="translate(20.7627 23.3594)" fill="#020060"/>
<path d="M1.26036 -2.0311e-06C1.4262 -2.0311e-06 1.59204 0 1.75788 0.0332775C1.92371 0.0665551 2.12272 0.13311 2.25539 0.199665L2.08955 0.665549C1.92371 0.598993 1.79105 0.565718 1.62521 0.53244C1.45937 0.499163 1.3267 0.499161 1.2272 0.499161C1.09453 0.499161 0.961857 0.532439 0.895522 0.598994C0.796019 0.66555 0.762851 0.765385 0.762851 0.898495C0.762851 0.96505 0.79602 0.998328 0.829188 1.06488C0.862355 1.09816 0.928691 1.13143 0.961858 1.16471C1.02819 1.19799 1.09453 1.23127 1.16086 1.23127C1.2272 1.26455 1.3267 1.26455 1.39303 1.29782C1.49254 1.3311 1.62521 1.36438 1.75788 1.39766C1.89055 1.43094 1.99005 1.49749 2.12272 1.56405C2.22222 1.6306 2.32172 1.73043 2.38806 1.86354C2.45439 1.99665 2.48756 2.12976 2.48756 2.32942C2.48756 2.62892 2.38806 2.86187 2.15589 3.02825C1.92371 3.19464 1.59204 3.29448 1.16086 3.29448C1.09453 3.29448 0.995024 3.29448 0.895522 3.29448C0.796019 3.29448 0.696516 3.2612 0.597014 3.2612C0.497511 3.22792 0.398011 3.22792 0.298508 3.19464C0.199006 3.16137 0.099503 3.12809 5.06096e-07 3.06153L0.165838 2.56237C0.39801 2.6622 0.597014 2.69548 0.762851 2.72876C0.928689 2.76204 1.09453 2.76203 1.19403 2.76203C1.39303 2.76203 1.52571 2.72875 1.62521 2.6622C1.72471 2.59564 1.75788 2.49581 1.75788 2.32942C1.75788 2.26287 1.75788 2.19631 1.72471 2.16304C1.69154 2.12976 1.65838 2.06321 1.62521 2.02993C1.59204 1.99665 1.52571 1.96337 1.45937 1.96337C1.39304 1.9301 1.3267 1.9301 1.26036 1.89682C1.09453 1.86354 0.961858 1.83026 0.796021 1.76371C0.663351 1.73043 0.530679 1.66388 0.431176 1.59732C0.331674 1.53077 0.232173 1.43093 0.165838 1.3311C0.099503 1.23127 0.0663345 1.09816 0.0663345 0.93177C0.0663345 0.632272 0.165837 0.399332 0.364842 0.232945C0.563847 0.0665571 0.862354 -2.0311e-06 1.26036 -2.0311e-06Z" transform="translate(24.1787 23.3271)" fill="#020060"/>
<path d="M1.02819 3.22792V0.499163H-1.01219e-06V0H2.71973V0.499163H1.72471V3.22792H1.02819Z" transform="translate(27.5947 23.3604)" fill="#020060"/>
<path d="M0.729685 0.332776C0.729685 0.432609 0.696517 0.499163 0.630182 0.565718C0.563847 0.632273 0.464346 0.665552 0.364843 0.665552C0.232173 0.665552 0.165837 0.632273 0.0995025 0.565718C0.0331675 0.499163 -1.01219e-06 0.432609 -1.01219e-06 0.332776C-1.01219e-06 0.232944 0.0331675 0.16639 0.0995025 0.0998346C0.165837 0.0332796 0.265341 1.01555e-06 0.364843 1.01555e-06C0.497513 1.01555e-06 0.563847 0.0332796 0.630182 0.0998346C0.696517 0.16639 0.729685 0.232944 0.729685 0.332776Z" transform="translate(31.0771 25.9561)" fill="#020060"/>
<path d="M0.663348 0.56572L-2.02438e-06 0.632274V0.199665L0.729687 -2.0311e-06H1.3267V3.12809H0.663348V0.56572Z" transform="translate(49.7178 23.4932)" fill="#020060"/>
<path d="M1.62521 1.79699C1.39303 1.9301 1.16086 1.99665 0.928688 1.99665C0.796018 1.99665 0.663351 1.96338 0.563848 1.9301C0.464346 1.89682 0.36484 1.83027 0.265338 1.76371C0.165835 1.69716 0.0995035 1.59732 0.066336 1.46421C1.01318e-06 1.3311 2.02438e-06 1.19799 2.02438e-06 1.0316C2.02438e-06 0.865214 0.0331655 0.69883 0.0995005 0.598998C0.165835 0.465887 0.232174 0.366055 0.331677 0.266222C0.431179 0.16639 0.563846 0.0998326 0.696516 0.0665551C0.829186 0.0332775 0.995027 1.01555e-06 1.16086 1.01555e-06C1.39304 1.01555e-06 1.55887 0.0332796 1.72471 0.0998346C1.89055 0.16639 1.99005 0.26622 2.08955 0.39933C2.18905 0.53244 2.25539 0.665549 2.28856 0.865214C2.32172 1.0316 2.35489 1.23127 2.35489 1.43094C2.35489 1.66388 2.32172 1.89682 2.28856 2.12976C2.22222 2.32943 2.15589 2.52909 2.05639 2.69548C1.95688 2.86187 1.79104 2.9617 1.62521 3.06153C1.45937 3.16137 1.2272 3.19464 0.995027 3.19464C0.829189 3.19464 0.696518 3.19464 0.563848 3.16137C0.431178 3.12809 0.331673 3.09481 0.265338 3.09481L0.398011 2.62892C0.497513 2.6622 0.597014 2.69548 0.696516 2.69548C0.796019 2.69548 0.895522 2.69548 0.961857 2.69548C1.09453 2.69548 1.2272 2.6622 1.29353 2.59565C1.39303 2.52909 1.45937 2.46253 1.5257 2.3627C1.59204 2.26287 1.62521 2.19632 1.65838 2.09649C1.62521 1.99665 1.62521 1.89682 1.62521 1.79699ZM0.597013 0.998327C0.597013 1.06488 0.597015 1.13143 0.630182 1.19799C0.630182 1.26454 0.663349 1.3311 0.696516 1.36438C0.729684 1.39765 0.796022 1.43093 0.829189 1.46421C0.895524 1.49749 0.961858 1.49749 1.06136 1.49749C1.1277 1.49749 1.2272 1.49749 1.29353 1.46421C1.35987 1.43093 1.4262 1.43093 1.45937 1.39766C1.49254 1.36438 1.55887 1.36438 1.55887 1.3311C1.59204 1.29782 1.62521 1.29782 1.62521 1.29782V1.19799C1.62521 1.13143 1.62521 1.03161 1.59204 0.931773C1.59204 0.83194 1.55887 0.765381 1.5257 0.698826C1.49254 0.632271 1.4262 0.565719 1.35987 0.499164C1.29353 0.465886 1.19403 0.43261 1.09453 0.43261C0.928688 0.43261 0.796021 0.465885 0.729686 0.565718C0.630183 0.732106 0.597013 0.865217 0.597013 0.998327Z" transform="translate(52.9346 23.46)" fill="#020060"/>
<path d="M0 0.499164V1.01555e-06H2.05638V0.43261L0.829187 3.12809H0.199007L1.4262 0.499164H0Z" transform="translate(56.5498 23.46)" fill="#020060"/>
<path d="M1.4262 1.23127C1.52571 1.23127 1.62521 1.26455 1.75788 1.29783C1.85738 1.3311 1.95688 1.39766 2.02322 1.46421C2.08955 1.53077 2.15589 1.6306 2.22222 1.73043C2.28856 1.83026 2.28856 1.96338 2.28856 2.12976C2.28856 2.29615 2.25539 2.46254 2.18905 2.59565C2.12272 2.72876 2.02322 2.82859 1.92372 2.92842C1.82421 3.02825 1.69154 3.09481 1.5257 3.12809C1.35987 3.16137 1.19403 3.19464 1.02819 3.19464C0.895521 3.19464 0.696516 3.16137 0.530678 3.12809C0.331673 3.09481 0.165839 3.02826 1.01219e-06 2.9617L0.165839 2.49581C0.364844 2.56237 0.497512 2.59565 0.630181 2.62893C0.762851 2.6622 0.862357 2.6622 0.928692 2.6622C1.1277 2.6622 1.3267 2.62893 1.4262 2.52909C1.55887 2.42926 1.59204 2.29615 1.59204 2.12976C1.59204 1.99665 1.52571 1.86354 1.4262 1.76371C1.3267 1.66388 1.12769 1.6306 0.862353 1.6306C0.829185 1.6306 0.796022 1.6306 0.762855 1.6306C0.729687 1.6306 0.696517 1.6306 0.630181 1.6306C0.630181 1.59732 0.630181 1.59732 0.630181 1.56404C0.630181 1.53076 0.630185 1.49749 0.597017 1.46421C0.597017 1.43094 0.597015 1.39766 0.563848 1.36438C0.563848 1.3311 0.563848 1.29783 0.563848 1.29783C0.630183 1.23127 0.66335 1.19799 0.729685 1.13144C0.79602 1.06488 0.862357 0.998326 0.928692 0.931771C0.995027 0.865216 1.06136 0.798659 1.12769 0.732104C1.19403 0.665549 1.26036 0.598993 1.29353 0.565716C1.29353 0.565716 1.29353 0.565719 1.29353 0.532441C1.29353 0.532441 1.29353 0.532439 1.29353 0.499162H0.0995045V-1.01555e-06H2.08955C2.08955 0.0332765 2.08955 0.0332775 2.08955 0.0998326C2.08955 0.13311 2.08955 0.166386 2.12272 0.232941C2.12272 0.266218 2.12272 0.299499 2.15589 0.366054C2.15589 0.399331 2.15589 0.43261 2.18905 0.465887L1.4262 1.23127Z" transform="translate(59.8008 23.4268)" fill="#020060"/>
<path d="M6.66667 6.88845V6.28945C7.56219 6.32273 8.35821 6.32273 9.05472 6.32273C9.71807 6.32273 10.4146 6.32273 11.1443 6.28945V6.75534C10.9121 6.82189 10.7131 6.92173 10.5141 6.98828C10.4478 7.48744 10.4146 7.92005 10.4146 8.25283C10.4146 8.51905 10.4478 8.98493 10.5141 9.75032C9.55224 10.1164 8.72305 10.3493 8.0597 10.4491C7.39635 10.5823 6.733 10.6488 6.03648 10.6488C4.14594 10.6488 2.6534 10.1496 1.59204 9.1846C0.53068 8.18627 0 6.92173 0 5.35768C0 3.72708 0.563847 2.46254 1.62521 1.46421C2.71973 0.499162 4.27861 1.01555e-06 6.33499 1.01555e-06C7.06468 1.01555e-06 7.76119 0.0665561 8.42454 0.166389C9.08789 0.266221 9.71807 0.465886 10.3151 0.698829L10.3814 0.79866C10.2488 1.43093 10.1493 2.19632 10.0497 3.12809H9.41957C9.41957 2.6622 9.3864 2.26287 9.32007 1.89682C9.02156 1.53077 8.59038 1.26455 8.12604 1.06488C7.62852 0.898493 7.06468 0.79866 6.36816 0.79866C5.10779 0.79866 4.11277 1.19799 3.34992 1.96337C2.58706 2.72876 2.22222 3.79364 2.22222 5.12474C2.22222 6.55567 2.62023 7.68711 3.41625 8.55232C4.21227 9.41754 5.17413 9.85015 6.33499 9.85015C6.96517 9.85015 7.59536 9.71704 8.29187 9.38426C8.32504 9.01821 8.35821 8.65216 8.35821 8.31938C8.35821 7.554 8.32504 7.15467 8.22554 7.05484C8.1592 6.98828 7.62852 6.92173 6.66667 6.88845Z" fill="#020060"/>
<path d="M0 10.3826V9.75031C0.563847 9.71704 0.895522 9.65048 0.995025 9.61721C1.06136 9.58393 1.09453 9.55065 1.1277 9.48409C1.16086 9.35098 1.2272 8.95165 1.2272 8.2861C1.26036 7.22122 1.26036 6.38928 1.26036 5.79029C1.26036 4.95835 1.26036 3.92675 1.2272 2.6622C1.19403 1.73043 1.16086 1.13144 1.09453 0.931771C1.06136 0.865216 1.02819 0.831938 0.961858 0.79866C0.895523 0.765383 0.563847 0.698828 0 0.632272V-1.01555e-06C1.02819 0.0332765 1.65838 0.0665556 1.95688 0.0665556L5.63847 -1.01555e-06C6.43449 -1.01555e-06 7.03151 0.0665556 7.39635 0.232943C7.76119 0.399331 8.0597 0.632272 8.25871 0.965048C8.45771 1.29782 8.59038 1.69715 8.59038 2.16304C8.59038 2.76203 8.42454 3.2612 8.09287 3.72708C7.76119 4.15969 7.16418 4.55902 6.30182 4.92507L7.86069 7.28778L9.08789 9.11804C9.32007 9.41754 9.4859 9.58393 9.61857 9.65048C9.71807 9.71704 9.91708 9.75031 10.1824 9.75031V10.316H9.75124C8.49088 10.316 7.69486 10.3493 7.33001 10.3493C6.89884 9.65048 6.26866 8.68543 5.4063 7.38761L3.8806 5.09146C3.91376 4.99163 3.94693 4.92507 3.9801 4.82524C4.1791 4.85852 4.31177 4.85852 4.41128 4.85852C4.87562 4.85852 5.3068 4.65885 5.77114 4.2928C6.20232 3.92675 6.43449 3.39431 6.43449 2.69548C6.43449 2.09649 6.26866 1.6306 5.90381 1.29782C5.53897 0.965048 5.04146 0.79866 4.34494 0.79866C4.11277 0.79866 3.81426 0.831939 3.44942 0.865217L3.41625 3.06153L3.34992 5.82357C3.34992 6.45584 3.38308 7.2545 3.41625 8.21955C3.44942 8.95165 3.48259 9.35098 3.54892 9.45082C3.58209 9.51737 3.61526 9.55065 3.71476 9.61721C3.81426 9.68376 4.14594 9.71704 4.70978 9.75031V10.3826C3.81426 10.3493 3.05141 10.316 2.35489 10.316C1.59204 10.316 0.829187 10.3493 0 10.3826Z" transform="translate(15.4229 0.132812)" fill="#020060"/>
<path d="M-1.01219e-06 9.75031C0.464344 9.71704 0.762853 9.68376 0.862356 9.6172C0.928691 9.58393 1.06136 9.38426 1.19403 9.05149C1.49254 8.41921 1.89055 7.52072 2.35489 6.38929L4.97512 -5.07775e-07H6.06965L9.3864 7.92005C9.81758 8.91838 10.0829 9.4841 10.1824 9.55065C10.2819 9.65048 10.5804 9.71704 11.1111 9.75031V10.4159C10.3151 10.3826 9.55224 10.3493 8.85572 10.3493C7.99337 10.3493 7.19735 10.3826 6.43449 10.4159V9.75031C7.03151 9.71704 7.36318 9.68376 7.46269 9.65048C7.56219 9.61721 7.59536 9.55065 7.59536 9.41754C7.59536 9.31771 7.49585 9.01821 7.29685 8.48577L6.79934 7.2545C6.20232 7.2545 5.5058 7.22122 4.74295 7.22122C4.0796 7.22122 3.48259 7.22122 2.95191 7.2545L2.62023 8.08644C2.52073 8.31938 2.42123 8.65216 2.28856 9.08476C2.25539 9.1846 2.25539 9.28443 2.25539 9.35098C2.25539 9.45082 2.28856 9.55065 2.38806 9.58393C2.48756 9.6172 2.81924 9.68376 3.41625 9.71704V10.3826C2.91874 10.3493 2.32172 10.316 1.62521 10.316C0.928689 10.316 0.398009 10.3493 -1.01219e-06 10.3826V9.75031ZM4.80929 2.59565L3.25041 6.38929C3.71476 6.42256 4.21227 6.42256 4.74295 6.42256C5.3068 6.42256 5.87065 6.42256 6.36816 6.38929L4.80929 2.59565Z" transform="translate(29.2539 0.0996094)" fill="#020060"/>
<path d="M-1.01219e-06 10.4159V9.78359C0.597014 9.75031 0.961855 9.71704 1.06136 9.65048C1.12769 9.61721 1.19403 9.55065 1.2272 9.45082C1.29353 9.31771 1.3267 8.91838 1.3267 8.18627C1.35987 6.98828 1.35987 6.12306 1.35987 5.52407V2.39598C1.35987 1.56404 1.3267 1.09816 1.29353 0.965048C1.26037 0.898493 1.2272 0.831938 1.16086 0.798661C1.06136 0.732106 0.696518 0.698828 0.0331685 0.632273V-5.07775e-07C0.796021 0.033277 1.35987 0.0332765 1.72471 0.0332765C2.12272 0.0332765 2.58707 0.033277 3.11775 -5.07775e-07C4.24544 1.46421 5.53897 3.02826 6.96517 4.72541C7.92703 5.85685 8.72305 6.78861 9.41957 7.52072V4.5923C9.41957 3.49414 9.41957 2.52909 9.3864 1.73043C9.35323 1.26455 9.32007 0.965047 9.25373 0.865215C9.22056 0.79866 9.15423 0.765384 9.08789 0.732107C9.02156 0.698829 8.65672 0.66555 8.0597 0.632273V-5.07775e-07C8.59038 0.033277 9.12106 0.0332765 9.65174 0.0332765C10.3814 0.0332765 11.0448 0.033277 11.6086 -5.07775e-07V0.632273C11.0779 0.66555 10.7463 0.698829 10.6136 0.765384C10.5473 0.798661 10.5141 0.831937 10.4478 0.865215C10.4146 0.898492 10.3814 0.965047 10.3483 1.0316C10.3151 1.16471 10.2819 1.53077 10.2819 2.16304L10.2488 5.12474V8.08644C10.2488 8.8851 10.2819 9.68376 10.3151 10.4824L10.2156 10.5823C9.61857 10.4824 9.18739 10.4159 8.95522 10.3826C7.69486 8.98493 6.16915 7.22122 4.37811 5.09146C3.48258 4.02658 2.7529 3.12809 2.18906 2.39598V5.25785C2.18906 6.02323 2.18905 6.98828 2.22222 8.08644C2.22222 8.8851 2.25539 9.35098 2.32172 9.48409C2.35489 9.55065 2.38806 9.58393 2.42123 9.6172C2.52073 9.68376 2.8524 9.71704 3.48259 9.75031V10.3826C2.68657 10.3493 2.12272 10.316 1.79105 10.316C1.55887 10.3493 0.961856 10.3826 -1.01219e-06 10.4159Z" transform="translate(44.0137 0.0996094)" fill="#020060"/>
<path d="M0.497513 10.3826V9.98326C0.829188 9.78359 1.06136 9.65048 1.2272 9.55065C1.29353 8.68543 1.3267 7.05484 1.3267 4.69213C1.3267 3.66053 1.3267 2.79531 1.29353 2.09648C1.26036 1.39766 1.2272 0.998326 1.19403 0.898494C1.16086 0.865216 1.1277 0.79866 1.09453 0.79866C1.02819 0.765383 0.663351 0.698828 1.01219e-06 0.632272V-1.01555e-06C0.729686 0.0332765 1.59204 0.0332785 2.5539 0.0332785L6.16915 -1.01555e-06C7.49585 -1.01555e-06 8.49088 0.166387 9.1874 0.499162C9.88391 0.831937 10.4146 1.3311 10.8126 2.02993C11.2106 2.72876 11.4096 3.5607 11.4096 4.52574C11.4096 5.79029 11.1111 6.88845 10.4809 7.78694C9.85074 8.71871 9.08789 9.35098 8.19237 9.75031C7.29685 10.1496 6.33499 10.3493 5.3068 10.3493L2.52073 10.2828C2.05638 10.316 1.39304 10.3493 0.497513 10.3826ZM3.48259 9.48409C3.8806 9.55065 4.31178 9.58393 4.74295 9.58393C5.83748 9.58393 6.66667 9.41754 7.23052 9.11804C7.79436 8.81854 8.25871 8.2861 8.62355 7.58728C8.98839 6.85517 9.15423 5.98995 9.15423 4.95835C9.15423 3.59397 8.78938 2.52909 8.09287 1.83026C7.46269 1.19799 6.43449 0.865217 5.04146 0.865217C4.74295 0.865217 4.21227 0.898493 3.44942 0.931771L3.38308 5.52407C3.41625 7.45417 3.44942 8.75199 3.48259 9.48409Z" transform="translate(59.6357 0.132812)" fill="#020060"/>
<path d="M0.0331665 10.4159V9.78359C0.696516 9.75031 1.09453 9.68376 1.16086 9.6172C1.26037 9.55065 1.29353 9.35098 1.3267 9.01821C1.35987 8.35266 1.39304 7.15467 1.39304 5.39096C1.39304 4.72541 1.39303 3.72708 1.35987 2.42926C1.35987 1.56404 1.3267 1.06488 1.29353 0.965048C1.26036 0.865216 1.2272 0.831939 1.12769 0.765384C1.02819 0.698829 0.663352 0.66555 2.02438e-06 0.632273V-5.07775e-07C0.995027 0.033277 1.79105 0.0665561 2.32173 0.0665561C3.25042 0.0665561 4.0796 0.033277 4.80929 -5.07775e-07V0.632273C4.14594 0.66555 3.74793 0.732106 3.68159 0.798661C3.58209 0.865216 3.54892 1.0316 3.51575 1.26455C3.48259 1.73043 3.44942 2.69548 3.44942 4.12641C3.44942 6.05651 3.44942 7.38761 3.48259 8.15299C3.48259 8.91838 3.54892 9.35098 3.61526 9.51737C3.64842 9.58393 3.71476 9.6172 3.81426 9.68376C3.91377 9.71704 4.24544 9.75031 4.84245 9.78359V10.4159L3.9801 10.3826C3.41625 10.3493 2.95191 10.3493 2.52073 10.3493L0.0331665 10.4159Z" transform="translate(75.1572 0.0996094)" fill="#020060"/>
<path d="M0 4.49246C0.199005 4.49246 0.331675 4.45919 0.39801 4.42591C0.431177 4.39263 0.497512 4.32608 0.563847 4.15969C0.696517 3.86019 0.862355 3.46086 1.09453 2.92842L2.28856 -1.01555e-06H2.78607L4.31177 3.62725C4.51078 4.09314 4.64345 4.32608 4.67662 4.39263C4.70978 4.42591 4.87562 4.45919 5.10779 4.49246V4.79197C4.74295 4.75869 4.41128 4.75869 4.0796 4.75869C3.68159 4.75869 3.31675 4.75869 2.98507 4.79197V4.49246C3.25041 4.49246 3.41625 4.45919 3.44942 4.45919C3.48259 4.42591 3.51575 4.39263 3.51575 4.35936C3.51575 4.32608 3.48259 4.15969 3.38308 3.92675L3.15091 3.36103C2.88557 3.36103 2.5539 3.36103 2.22222 3.36103C1.92371 3.36103 1.65837 3.36103 1.39303 3.36103L1.26036 3.72708C1.2272 3.82691 1.16086 3.9933 1.12769 4.19297C1.12769 4.22625 1.09453 4.2928 1.09453 4.32608C1.09453 4.39263 1.12769 4.42591 1.16086 4.42591C1.19403 4.45919 1.35987 4.45919 1.62521 4.49246V4.79197C1.39303 4.75869 1.12769 4.75869 0.79602 4.75869C0.497512 4.75869 0.232172 4.75869 0.066335 4.79197V4.49246H0ZM2.22222 1.19799L1.49254 2.92842C1.69154 2.92842 1.92371 2.92842 2.18905 2.92842C2.45439 2.92842 2.68657 2.92842 2.95191 2.92842L2.22222 1.19799Z" transform="translate(0.166016 13.7773)" fill="#020060"/>
<path d="M1.06136 4.75869V4.45919C1.19403 4.45919 1.3267 4.45919 1.45937 4.42591C1.5257 4.42591 1.55887 4.39263 1.59204 4.35935C1.62521 4.32608 1.62521 4.2928 1.65837 4.22624C1.65837 4.12641 1.69154 3.76036 1.69154 3.16137C1.69154 2.72876 1.69154 2.26287 1.69154 1.83026C1.69154 0.931772 1.69154 0.465884 1.69154 0.465884C1.69154 0.432607 1.59204 0.43261 1.45937 0.43261C1.16086 0.43261 0.862355 0.432607 0.66335 0.465884C0.53068 0.465884 0.464344 0.499164 0.431177 0.499164C0.398009 0.499164 0.39801 0.53244 0.39801 0.565718C0.39801 0.598995 0.364842 0.798662 0.331675 1.16471H0.033168C0.033168 0.732107 0.0331672 0.366051 -2.53048e-07 0.0332755L0.033168 1.01555e-06C0.729685 0.0332785 1.4262 0.066555 2.08955 0.066555C2.7529 0.066555 3.51575 0.0332785 4.34494 1.01555e-06L4.37811 0.066555C4.34494 0.366053 4.31177 0.732107 4.27861 1.16471H4.01327C3.9801 0.798662 3.9801 0.565716 3.94693 0.532438C3.94693 0.499161 3.8806 0.499162 3.84743 0.465884C3.68159 0.432607 3.31675 0.43261 2.78607 0.43261C2.7529 0.43261 2.71973 0.432607 2.71973 0.465884C2.71973 0.465884 2.71973 0.532439 2.71973 0.632272L2.68657 2.89514C2.68657 3.56069 2.68657 3.96003 2.71973 4.09314C2.71973 4.25952 2.7529 4.32608 2.78607 4.35935C2.81924 4.39263 2.98507 4.39263 3.31675 4.42591V4.72541C2.98507 4.69213 2.62023 4.69213 2.25539 4.69213C1.75788 4.72541 1.35987 4.75869 1.06136 4.75869Z" transform="translate(13.6982 13.8096)" fill="#020060"/>
<path d="M0.199006 4.82524V4.62558C0.331676 4.55902 0.431178 4.49246 0.530681 4.42591C0.563848 4.05986 0.597015 3.32775 0.597015 2.19632C0.597015 1.43093 0.597015 0.931773 0.563848 0.665553C0.563848 0.532443 0.530679 0.432609 0.497511 0.399331C0.464344 0.366054 0.298506 0.332775 -1.01219e-06 0.299498V2.0311e-06C0.530679 0.0332796 0.961857 0.0332765 1.26036 0.0332765L3.11774 2.0311e-06C3.31675 2.0311e-06 3.48259 -1.01654e-06 3.64842 0.0332765L3.68159 0.0665561C3.64843 0.299499 3.58209 0.632274 3.58209 1.06488H3.31675C3.31675 0.732107 3.28358 0.565717 3.28358 0.532439C3.28358 0.499162 3.21725 0.499163 3.11774 0.465885C2.91874 0.432608 2.6534 0.399331 2.25539 0.399331C2.05639 0.399331 1.85738 0.399328 1.59204 0.432606C1.55887 1.13143 1.55887 1.69715 1.52571 2.09648C1.75788 2.09648 1.99005 2.12976 2.18906 2.12976C2.48756 2.12976 2.68657 2.12976 2.7529 2.09648C2.78607 2.09648 2.81924 2.06321 2.81924 1.99665C2.81924 1.96338 2.85241 1.83027 2.85241 1.56404H3.15091C3.15091 1.9301 3.11774 2.19632 3.11774 2.29615L3.15091 3.06153H2.85241C2.85241 2.76204 2.81924 2.59565 2.78607 2.56237C2.78607 2.52909 2.7529 2.52909 2.68657 2.49582C2.58707 2.46254 2.32172 2.46254 1.92371 2.46254C1.79104 2.46254 1.65837 2.46254 1.49254 2.49582C1.49254 2.62893 1.49254 2.72876 1.49254 2.86187C1.49254 3.49414 1.49254 3.9933 1.52571 4.35935H2.18906C2.5539 4.35935 2.91874 4.32608 3.21725 4.2928C3.28358 4.09314 3.31675 3.86019 3.38309 3.59397H3.64842C3.58209 3.9933 3.58209 4.39263 3.54892 4.75868C3.34992 4.75868 3.15091 4.79196 2.95191 4.79196C2.81924 4.79196 2.58707 4.79196 2.22222 4.79196C1.89055 4.79196 1.55887 4.79196 1.29353 4.79196C0.995024 4.79196 0.597016 4.82524 0.199006 4.82524Z" transform="translate(26.7666 13.7432)" fill="#020060"/>
<path d="M0.199005 4.72541V4.55902C0.331675 4.49247 0.431177 4.42591 0.563847 4.35936C0.597015 3.76036 0.597014 3.12809 0.597014 2.46254C0.597014 1.9301 0.597014 1.46421 0.597014 0.998324C0.597014 0.665548 0.563847 0.465884 0.563847 0.432607C0.563847 0.399329 0.530681 0.366053 0.497513 0.366053C0.464346 0.366053 0.298508 0.332776 1.01219e-06 0.299499V-2.0311e-06C0.431178 -2.0311e-06 0.829188 0.0332775 1.19403 0.0332775C1.55887 0.0332775 1.89055 0.0332755 2.22222 -2.0311e-06V0.299499C1.92371 0.332776 1.72471 0.332775 1.69154 0.366053C1.65838 0.39933 1.65837 0.432606 1.62521 0.499161C1.62521 0.565716 1.59204 0.93177 1.59204 1.59732L1.55887 3.22792C1.55887 3.52742 1.55887 3.89347 1.59204 4.2928C1.89055 4.2928 2.08955 4.32608 2.25539 4.32608C2.68657 4.32608 3.01824 4.2928 3.31675 4.22625C3.38309 4.02658 3.44942 3.79364 3.48259 3.49414H3.78109C3.71476 3.82691 3.68159 4.22625 3.64843 4.72541C3.44942 4.72541 3.25041 4.75868 3.05141 4.75868L1.82421 4.72541H1.29353C1.02819 4.69213 0.66335 4.72541 0.199005 4.72541Z" transform="translate(39.2373 13.8428)" fill="#020060"/>
<path d="M0 4.79197V4.49246C0.298507 4.49246 0.497514 4.45919 0.530682 4.42591C0.563849 4.39263 0.597016 4.2928 0.597016 4.15969C0.630183 3.86019 0.63018 3.29447 0.63018 2.49581C0.63018 2.19632 0.63018 1.73043 0.63018 1.13144C0.63018 0.732108 0.630183 0.499165 0.597016 0.465887C0.597016 0.43261 0.563849 0.399331 0.530682 0.366054C0.497514 0.332776 0.298509 0.332777 0.0331695 0.2995V-1.01555e-06C0.497514 -1.01555e-06 0.862356 0.0332785 1.09453 0.0332785C1.52571 0.0332785 1.89055 0.0332765 2.25539 -1.01555e-06V0.2995C1.95688 0.332777 1.79104 0.332776 1.72471 0.366054C1.69154 0.399331 1.65837 0.465883 1.65837 0.565716C1.62521 0.765381 1.62521 1.23127 1.62521 1.89682C1.62521 2.76203 1.62521 3.39431 1.62521 3.72708C1.62521 4.05986 1.65838 4.2928 1.69154 4.35936C1.69154 4.39263 1.72471 4.42591 1.79104 4.42591C1.82421 4.45919 1.99005 4.45919 2.25539 4.49246V4.79197H1.85738C1.59204 4.79197 1.39304 4.79197 1.19403 4.79197H0Z" transform="translate(51.7412 13.7764)" fill="#020060"/>
<path d="M0.199004 4.82524V4.62558C0.331674 4.55902 0.431176 4.49246 0.530679 4.42591C0.563846 4.05986 0.597013 3.32775 0.597013 2.19632C0.597013 1.43093 0.597016 0.931773 0.563848 0.665553C0.563848 0.532443 0.530682 0.432609 0.497514 0.399331C0.464347 0.366054 0.29851 0.332775 2.02438e-06 0.299498V2.0311e-06C0.530682 0.0332796 0.961855 0.0332765 1.26036 0.0332765L3.11774 2.0311e-06C3.31675 2.0311e-06 3.48259 -1.01654e-06 3.64843 0.0332765L3.68159 0.0665561C3.64842 0.299499 3.58209 0.632274 3.58209 1.06488H3.28358C3.28358 0.732107 3.25041 0.565717 3.25041 0.532439C3.25041 0.499162 3.18408 0.499163 3.08458 0.465885C2.88557 0.432608 2.62023 0.399331 2.22222 0.399331C2.02322 0.399331 1.82421 0.399328 1.55887 0.432606C1.52571 1.13143 1.52571 1.69715 1.49254 2.09648C1.72471 2.09648 1.95688 2.12976 2.15589 2.12976C2.4544 2.12976 2.6534 2.12976 2.71974 2.09648C2.7529 2.09648 2.78607 2.06321 2.78607 1.99665C2.78607 1.96338 2.81924 1.83027 2.81924 1.56404H3.11774C3.11774 1.9301 3.08458 2.19632 3.08458 2.29615L3.11774 3.06153H2.81924C2.81924 2.76204 2.78607 2.59565 2.7529 2.56237C2.7529 2.52909 2.71974 2.52909 2.6534 2.49582C2.5539 2.46254 2.28856 2.46254 1.89055 2.46254C1.75788 2.46254 1.62521 2.46254 1.45937 2.49582C1.45937 2.62893 1.45937 2.72876 1.45937 2.86187C1.45937 3.49414 1.45937 3.9933 1.49254 4.35935H2.15589C2.52073 4.35935 2.88557 4.32608 3.18408 4.2928C3.25041 4.09314 3.28358 3.86019 3.34992 3.59397H3.61526C3.54892 3.9933 3.54892 4.39263 3.51575 4.75868C3.31675 4.75868 3.11774 4.79196 2.91874 4.79196C2.78607 4.79196 2.5539 4.79196 2.18905 4.79196C1.85738 4.79196 1.5257 4.79196 1.26036 4.79196C0.995023 4.79196 0.630181 4.82524 0.199004 4.82524Z" transform="translate(62.7197 13.7432)" fill="#020060"/>
<path d="M0.0331665 4.75869V4.45919C0.298506 4.42591 0.431177 4.42591 0.464345 4.39263C0.497512 4.39263 0.497511 4.35936 0.530679 4.32608C0.563846 4.25952 0.563848 4.09313 0.563848 3.79364C0.563848 3.32775 0.563848 2.92842 0.563848 2.6622C0.563848 2.29615 0.563848 1.79699 0.563848 1.23127C0.563848 0.798661 0.530682 0.532442 0.497514 0.43261C0.497514 0.399332 0.464343 0.366051 0.431175 0.366051C0.398008 0.332773 0.265342 0.332774 2.02438e-06 0.299497V1.01555e-06C0.464347 1.01555e-06 0.762854 0.0332755 0.895523 0.0332755L2.58706 1.01555e-06C2.95191 1.01555e-06 3.21725 0.0332795 3.38309 0.0998346C3.54892 0.16639 3.68159 0.2995 3.78109 0.43261C3.8806 0.598997 3.91376 0.765384 3.91376 0.998327C3.91376 1.26455 3.84743 1.49749 3.68159 1.69715C3.51575 1.89682 3.25041 2.09648 2.8524 2.22959L3.58209 3.32775L4.14594 4.15969C4.24544 4.2928 4.34494 4.39263 4.37811 4.39263C4.44445 4.42591 4.51078 4.42591 4.64345 4.42591V4.69213H4.44444C3.8806 4.69213 3.51575 4.69213 3.34992 4.72541C3.15091 4.42591 2.85241 3.96002 2.48756 3.36103L1.79104 2.29615C1.82421 2.26287 1.82421 2.22959 1.85738 2.16304C1.95688 2.16304 2.02322 2.16304 2.05639 2.16304C2.25539 2.16304 2.45439 2.06321 2.68657 1.89682C2.88557 1.73043 2.98508 1.49749 2.98508 1.16471C2.98508 0.898494 2.91874 0.665548 2.7529 0.532438C2.58706 0.366051 2.35489 0.299497 2.02322 0.299497C1.92371 0.299497 1.79104 0.299499 1.62521 0.332776L1.59204 1.3311L1.55887 2.59565C1.55887 2.89515 1.55887 3.26119 1.59204 3.6938C1.62521 4.02658 1.62521 4.22625 1.65838 4.25952C1.65838 4.2928 1.69154 4.32608 1.72471 4.32608C1.75788 4.35936 1.92371 4.35935 2.18905 4.39263V4.69213C1.79104 4.65885 1.4262 4.65885 1.12769 4.65885C0.762852 4.72541 0.431176 4.75869 0.0331665 4.75869Z" transform="translate(75.1572 13.8096)" fill="#020060"/>
</svg>
