<svg width="40" height="66" viewBox="0 0 40 66" fill="none" xmlns="http://www.w3.org/2000/svg">
<path d="M24.1893 25.103C22.9924 25.103 22.0186 24.1609 22.0186 23.0024C22.0186 21.8442 22.9924 20.9019 24.1893 20.9019C25.3863 20.9019 26.3601 21.844 26.3601 23.0024C26.3601 24.1607 25.3863 25.103 24.1893 25.103ZM24.1893 22.4756C23.8891 22.4756 23.6449 22.7119 23.6449 23.0024C23.6449 23.293 23.8891 23.5293 24.1893 23.5293C24.4896 23.5293 24.7338 23.293 24.7338 23.0024C24.7338 22.7119 24.4896 22.4756 24.1893 22.4756Z" fill="#DBA750"/>
<path d="M24.1893 41.319C22.9924 41.319 22.0186 40.3769 22.0186 39.2184C22.0186 38.0605 22.9924 37.1182 24.1893 37.1182C25.3863 37.1182 26.3601 38.0603 26.3601 39.2184C26.3601 40.3767 25.3863 41.319 24.1893 41.319ZM24.1893 38.6919C23.8891 38.6919 23.6449 38.9281 23.6449 39.2184C23.6449 39.509 23.8891 39.7453 24.1893 39.7453C24.4896 39.7453 24.7338 39.509 24.7338 39.2184C24.7338 38.9281 24.4896 38.6919 24.1893 38.6919Z" fill="#DBA750"/>
<path d="M24.1893 49.4273C22.9924 49.4273 22.0186 48.4851 22.0186 47.3267C22.0186 46.1684 22.9924 45.2261 24.1893 45.2261C25.3863 45.2261 26.3601 46.1683 26.3601 47.3267C26.3601 48.4851 25.3863 49.4273 24.1893 49.4273ZM24.1893 46.7999C23.8891 46.7999 23.6449 47.0363 23.6449 47.3268C23.6449 47.6173 23.8891 47.8537 24.1893 47.8537C24.4896 47.8537 24.7338 47.6173 24.7338 47.3268C24.7338 47.0363 24.4896 46.7999 24.1893 46.7999Z" fill="#DBA750"/>
<path d="M39.9992 42.7613C39.9992 42.7584 40 42.7558 39.9998 42.7529C39.4652 18.0296 36.5049 10.8512 35.2921 8.93224L36.2396 7.83914C36.3959 7.65879 36.4605 7.42038 36.4159 7.18904C36.3714 6.95771 36.2219 6.75784 36.009 6.64422C33.3544 5.22945 31.0402 5.01181 29.9348 5.00252C29.9312 4.97404 29.9279 4.94477 29.9235 4.91754C29.8741 4.61492 29.7403 3.8161 24.7347 0.806371C24.3682 0.363528 23.5616 0.250693 23.0261 0.175941C22.2121 0.0624765 21.1379 0 20.0016 0C18.8652 0 17.791 0.0624765 16.9768 0.175941C16.4413 0.250693 15.6345 0.363213 15.2682 0.806529C10.2628 3.8161 10.1288 4.61492 10.0795 4.9177C10.0751 4.94477 10.072 4.97388 10.0685 5.00221C8.96306 5.01134 6.64899 5.22914 3.99421 6.64422C3.78116 6.75784 3.63187 6.95771 3.58714 7.18904C3.54258 7.42038 3.60715 7.65879 3.76344 7.83914L4.70897 8.93004C3.49705 10.8459 0.534892 18.0203 0.000162541 42.7531C0.000162541 42.7559 0.000812706 42.7586 0.000812706 42.7614C0.000812706 42.7641 0 42.7668 0 42.7696V49.168C0 49.6027 0.36413 49.9549 0.813153 49.9549H6.1637L4.92998 63.1494C4.89908 63.4794 5.0853 63.7929 5.3956 63.9331C5.5823 64.0174 10.0803 65.9994 19.9977 66H20.0019C29.9192 65.9994 34.4174 64.0174 34.6041 63.9331C34.9144 63.7927 35.1006 63.4792 35.0697 63.1494L33.8359 49.9549H39.1868C39.6358 49.9549 40 49.6027 40 49.168V42.7696C40.0001 42.7666 39.9993 42.764 39.9992 42.7613ZM35.8222 15.331C36.7903 19.5351 38.0061 27.5545 38.3555 41.9826H33.0906L32.4799 35.452V19.7748L34.5606 11.1175C34.9257 12.0194 35.3692 13.3637 35.8222 15.331ZM34.3334 7.58955L34.1009 7.85787L32.7597 7.01751C33.2506 7.15961 33.7782 7.34484 34.3334 7.58955ZM28.3296 5.25668C28.3997 5.95242 28.1452 7.40338 27.8451 8.72231L26.7298 7.19014C26.6716 7.1102 26.5987 7.04174 26.5146 6.98761L25.5159 6.34616L25.1147 2.91216C26.6278 3.8781 28.0213 4.86529 28.3296 5.25668ZM24.8574 7.81207L25.4881 8.21715L27.546 11.0443C27.7001 11.2558 27.9492 11.3781 28.2107 11.3781C28.2576 11.3781 28.3049 11.3743 28.3519 11.3661C28.6622 11.3133 28.9131 11.0917 28.9956 10.7974C29.0771 10.5075 29.5754 8.69682 29.8235 7.05276L33.3386 9.25501L31.0651 18.7154C29.8217 18.4188 27.3439 17.9155 24.6363 17.8558L23.9215 16.351C25.1951 15.8183 26.6135 15.3059 28.1813 14.8524C28.3891 14.7923 28.5636 14.6543 28.6658 14.469C28.7679 14.2838 28.7894 14.0668 28.7253 13.8663C28.691 13.759 27.8838 11.3355 24.4299 8.2439C24.5707 8.09991 24.7129 7.95607 24.8574 7.81207ZM30.8538 32.6546V34.7007H22.3508V32.6546H30.8538ZM23.6481 31.0809C23.6644 30.8044 23.8997 30.5836 24.1895 30.5836C24.4792 30.5836 24.7147 30.8044 24.7309 31.0809H23.6481ZM26.3585 31.0809C26.3419 29.9363 25.3759 29.0098 24.1894 29.0098C23.2993 29.0098 22.5333 29.5314 22.1988 30.2748C22.0514 30.0748 21.8109 29.9434 21.5377 29.9434H18.4618C18.1888 29.9434 17.9486 30.0748 17.8009 30.2746C17.4662 29.5312 16.7005 29.01 15.8106 29.01C14.7587 29.01 13.8818 29.7383 13.6842 30.7008V28.8973C13.7021 28.6902 13.8576 27.1192 14.5576 24.715C14.9121 24.9588 15.3439 25.1034 15.8106 25.1034C17.0076 25.1034 17.9814 24.1612 17.9814 23.0028C17.9814 21.9486 17.1738 21.0758 16.1263 20.9269C17.0053 20.1862 19.1114 18.5758 22.4434 17.0074L23.3734 18.9655C23.506 19.2448 23.7946 19.4237 24.1123 19.4237C26.9653 19.4237 29.6962 20.0057 30.8538 20.2882V31.0809H26.3585ZM20.7243 31.5169V35.8379H19.2748V31.5169H20.7243ZM17.6485 32.6546V34.7007H13.6841V32.6546H17.6485ZM15.2691 31.0809C15.2853 30.8044 15.5207 30.5836 15.8106 30.5836C16.1003 30.5836 16.3358 30.8044 16.352 31.0809H15.2691ZM15.266 23.0027C15.266 22.7122 15.5102 22.4758 15.8106 22.4758C16.1108 22.4758 16.3551 22.7122 16.3551 23.0027C16.3551 23.2932 16.1108 23.5295 15.8106 23.5295C15.5102 23.5295 15.266 23.2932 15.266 23.0027ZM26.8336 13.61C22.4595 14.9774 19.269 16.7467 17.227 18.1153C18.637 15.4056 20.6014 12.4109 23.3339 9.40703C25.353 11.2168 26.371 12.7559 26.8336 13.61ZM16.9915 15.2325C15.8368 14.5013 14.2463 13.6293 13.3105 13.1276C14.5197 11.4121 16.0668 9.88906 16.863 9.14957C17.8485 10.0082 18.898 10.9567 19.5064 11.5101C18.5446 12.7853 17.7124 14.0342 16.9915 15.2325ZM16.6511 1.83243C17.1313 1.72086 18.2472 1.57371 20.0018 1.57371C21.7561 1.57371 22.8719 1.72086 23.3523 1.83243L23.6071 4.01423H16.3963L16.6511 1.83243ZM16.2122 5.58794H23.7907L23.8987 6.51171C22.6312 7.75873 21.5014 9.01187 20.4954 10.2496C19.4157 9.26823 17.2699 7.33933 16.1121 6.44452L16.2122 5.58794ZM11.6736 5.25683C11.982 4.86529 13.3754 3.8781 14.8883 2.91216L14.4871 6.34616L13.4884 6.98761C13.4043 7.04174 13.3315 7.1102 13.2733 7.19014L12.1579 8.72231C11.8579 7.40322 11.6032 5.95226 11.6736 5.25683ZM10.1794 7.05103C10.4272 8.69556 10.9262 10.5072 11.0077 10.7974C11.0901 11.0917 11.341 11.3133 11.6513 11.3661C11.6985 11.3743 11.7457 11.3781 11.7925 11.3781C12.054 11.3781 12.3033 11.2558 12.4572 11.0443L14.5151 8.21715L15.2172 7.76612C15.3452 7.867 15.487 7.98188 15.6368 8.10542C14.6431 9.03375 12.7681 10.9136 11.459 13.0038C11.3435 13.1882 11.3113 13.4102 11.3697 13.6183C11.4282 13.8262 11.5723 14.002 11.7684 14.1043C11.8 14.1206 14.5803 15.5738 16.1983 16.6107C15.9648 17.0347 15.747 17.4497 15.541 17.856C12.793 17.9144 10.2111 18.4271 8.93655 18.7222L6.66135 9.25501L10.1794 7.05103ZM7.22714 7.02569L5.90105 7.85645L5.67012 7.59002C6.21769 7.34956 6.73974 7.16669 7.22714 7.02569ZM4.17766 15.331C4.63058 13.3637 5.07408 12.0196 5.43902 11.1177L7.51955 19.7747L7.51923 35.4556L6.90904 41.9828H1.64452C1.99385 27.5545 3.20968 19.5351 4.17766 15.331ZM1.62631 43.5562H6.76202L6.60996 45.1818H1.62631V43.5562ZM6.31088 48.381H1.62631V46.7557H6.46294L6.31088 48.381ZM12.0578 63.9153C9.21367 63.5172 7.42149 62.986 6.60459 62.7032L9.07576 36.2744H12.0578V63.9153ZM12.0578 34.7007H9.14602V32.6546H12.0578V34.7007ZM12.0578 28.867V31.0809H9.14602V20.2937C10.1613 20.0537 12.3645 19.5926 14.7716 19.4604C14.6111 19.8157 14.0176 21.2431 13.8878 21.5854C12.283 25.8184 12.0578 28.8492 12.0578 28.867ZM20 64.4261C17.5605 64.426 15.4608 64.3005 13.6842 64.1141V47.7506C13.8875 48.7063 14.7636 49.4272 15.8106 49.4272C17.0076 49.4272 17.9814 48.485 17.9814 47.3266C17.9814 46.1684 17.0076 45.226 15.8106 45.226C14.7636 45.226 13.8874 45.9469 13.6842 46.9027V39.642C13.8875 40.5977 14.7636 41.3186 15.8106 41.3186C17.0076 41.3186 17.9814 40.3765 17.9814 39.2181C17.9814 38.0601 17.0076 37.1178 15.8106 37.1178C14.7636 37.1178 13.8874 37.8387 13.6842 38.7941V36.274H17.6487V36.6244C17.6487 37.0591 18.0128 37.4113 18.4618 37.4113H21.5377C21.9867 37.4113 22.3508 37.0591 22.3508 36.6244V36.274H30.9241L33.3952 62.7027C31.9797 63.193 27.6553 64.426 20 64.4261ZM15.266 47.3266C15.266 47.0361 15.5102 46.7997 15.8106 46.7997C16.1108 46.7997 16.3551 47.0361 16.3551 47.3266C16.3551 47.6171 16.1108 47.8535 15.8106 47.8535C15.5102 47.8535 15.266 47.6171 15.266 47.3266ZM15.266 39.2184C15.266 38.928 15.5102 38.6918 15.8106 38.6918C16.1108 38.6918 16.3551 38.928 16.3551 39.2184C16.3551 39.5089 16.1108 39.7453 15.8106 39.7453C15.5102 39.7453 15.266 39.5089 15.266 39.2184ZM38.3738 48.381H33.6889L33.5369 46.7557H38.3738V48.381ZM33.3897 45.1818L33.2376 43.5562H38.3737V45.1818H33.3897Z" fill="#DBA750"/>
</svg>
