<svg width="46" height="66" viewBox="0 0 46 66" fill="none" xmlns="http://www.w3.org/2000/svg">
<path d="M0.805843 1.62172C0.5931 1.62172 0.385193 1.53577 0.235306 1.38495C0.0852584 1.23251 -9.24674e-07 1.02493 -9.24674e-07 0.810861C-9.24674e-07 0.596794 0.0852584 0.389214 0.235306 0.236772C0.385193 0.0857891 0.5931 -1.22738e-06 0.805843 -1.22738e-06C1.01697 -1.22738e-06 1.22488 0.0857891 1.37461 0.236772C1.52466 0.387592 1.61169 0.596794 1.61169 0.810861C1.61169 1.02493 1.52466 1.23397 1.37461 1.38495C1.22488 1.53577 1.01697 1.62172 0.805843 1.62172Z" transform="translate(24.3418 32.0269)" fill="white"/>
<path d="M45.2285 20.5938C45.0384 8.1722 42.0294 6.69497 41.349 6.52112C36.8951 5.30483 29.0171 0.182282 28.9382 0.130549C28.8076 0.0454083 28.6552 0 28.4995 0H17.5007C17.345 0 17.1927 0.0454083 17.062 0.130711C16.983 0.182282 9.10733 5.30418 4.65118 6.52112C3.97056 6.69513 0.961541 8.17236 0.771684 20.5938C0.581021 33.0547 0.00597099 61.055 0.000168919 61.3364C-0.00547199 61.614 0.130393 61.8753 0.36022 62.0289C0.437259 62.0803 1.69792 62.8968 3.94606 62.8967C4.80912 62.8965 5.82191 62.7703 6.9654 62.4393C7.01423 62.9028 7.07467 63.3397 7.15026 63.7377C7.19958 63.9962 7.37025 64.2145 7.6083 64.3233C7.77253 64.3985 11.3215 66 15.052 66C15.4393 66 16.2843 65.9359 16.3174 65.9285C16.4532 65.8975 18.5197 65.3904 20.5664 63.2567H25.4332C27.4799 65.3902 29.5464 65.8973 29.6823 65.9285C29.7153 65.9361 30.56 66 30.9476 66C34.6779 66 38.2271 64.3985 38.3915 64.3233C38.6296 64.2145 38.8003 63.996 38.8496 63.7377C38.9253 63.3404 38.9854 62.9046 39.0343 62.4421C40.1787 62.7731 41.1901 62.8968 42.0539 62.8968C44.3016 62.8967 45.5627 62.0806 45.6398 62.029C45.8698 61.8756 46.0056 61.6142 45.9998 61.3366C45.9942 61.055 45.4191 33.0547 45.2285 20.5938ZM28.7138 5.17606C28.9928 4.07037 29.1733 3.0949 29.2589 2.25128C29.6554 2.49827 30.1334 2.79212 30.6751 3.11712L31.5672 5.57176L30.2444 6.30381C30.0048 6.43646 29.8483 6.68248 29.8291 6.9572C29.8098 7.23192 29.9305 7.49772 30.1494 7.66298L31.649 8.79478C30.2699 13.9817 26.0687 21.3223 23.8061 25.0542V23.7777C24.9006 19.6993 27.5044 9.96664 28.7138 5.17606ZM27.6957 1.62173C27.6509 2.46308 27.4691 3.51979 27.1518 4.77679C26.1698 8.66617 24.2651 15.8263 23.0001 20.5554C21.7351 15.8264 19.8304 8.66617 18.8484 4.77679C18.5302 3.51671 18.3515 2.46308 18.3076 1.62173H27.6957ZM16.1712 6.9572C16.152 6.68248 15.9955 6.43646 15.7559 6.30381L14.4332 5.57176L15.3252 3.11712C15.8669 2.79212 16.3449 2.49827 16.7414 2.25128C16.8267 3.09458 17.0073 4.07037 17.2865 5.17622C18.4957 9.96664 21.0996 19.6993 22.1942 23.7777V25.0542C19.9316 21.3223 15.7304 13.9817 14.3513 8.79478L15.851 7.66298C16.0698 7.49772 16.1905 7.23192 16.1712 6.9572ZM6.84774 60.7863C4.12996 61.6614 2.35001 61.1684 1.62201 60.8622C1.70098 56.9976 2.20689 32.1543 2.38321 20.6189C2.49941 13.0259 3.66917 9.98204 4.43537 8.79705C5.26523 11.8787 7.32916 20.179 8.00671 28.8138C8.00784 28.8273 9.04705 37.0253 8.20479 43.0249C7.54947 47.6938 6.62275 55.4766 6.84774 60.7863ZM16.0021 64.336C12.9968 64.6115 9.75523 63.4479 8.66089 63.0084C8.14693 59.6587 8.55855 53.8899 9.06962 49.1386C10.2594 49.5761 11.4137 49.6965 12.3159 49.6965C13.3387 49.6965 14.0376 49.5439 14.0978 49.5302C14.4085 49.4599 14.6488 49.2122 14.7113 48.8983L15.5791 44.5314C15.6226 44.3117 15.5741 44.0834 15.4445 43.9011C15.3149 43.7186 15.1162 43.5983 14.8954 43.5686L9.84887 42.8911C10.6228 36.8201 9.68222 29.217 9.61179 28.6659C8.88105 19.3809 6.57311 10.4783 5.84818 7.85045C8.08455 7.1064 10.8344 5.69258 13.148 4.38579L12.6817 5.66842C12.5451 6.04433 12.7017 6.46452 13.0502 6.65734L13.885 7.11937L12.9551 7.82126C12.6985 8.01473 12.5805 8.34297 12.6545 8.65677C14.2992 15.6453 21.1244 26.4497 22.1941 28.1158V57.1799C20.4024 62.9818 16.4779 64.2078 16.0021 64.336ZM9.25754 47.4676C9.38599 46.3731 9.51412 45.3681 9.63032 44.4977L13.8299 45.0614L13.2413 48.0245C12.4522 48.1124 10.8515 48.1631 9.25754 47.4676ZM21.8696 61.6348C22.2706 61.0395 22.6536 60.3669 23.0002 59.6021C23.3467 60.3669 23.7297 61.0395 24.1308 61.6348H21.8696ZM37.3393 63.0084C36.2443 63.4482 33.0043 64.6121 29.9987 64.336C29.5069 64.203 25.5947 62.9734 23.8059 57.1853V28.1158C24.8758 26.4497 31.7008 15.6451 33.3455 8.65677C33.4195 8.3428 33.3015 8.01473 33.0449 7.82126L32.115 7.11937L32.9498 6.65734C33.2983 6.46436 33.4549 6.04433 33.3183 5.66842L32.8522 4.38579C35.1657 5.69258 37.9154 7.10624 40.1518 7.85045C39.427 10.4783 37.1191 19.3809 36.3882 28.6659C36.3179 29.217 35.3774 36.8201 36.1511 42.8911L31.1046 43.5686C30.8838 43.5983 30.6849 43.7186 30.5555 43.9011C30.4259 44.0834 30.3774 44.3115 30.4209 44.5314L31.2887 48.8983C31.3512 49.2122 31.5915 49.46 31.9022 49.5302C31.9623 49.5439 32.6612 49.6965 33.6841 49.6965C34.5863 49.6965 35.7405 49.5761 36.9302 49.1381C37.4416 53.8893 37.8534 59.6586 37.3393 63.0084ZM36.7428 47.4673C35.157 48.1571 33.5495 48.1083 32.7587 48.0224L32.1704 45.0614L36.37 44.4977C36.4862 45.3681 36.6143 46.3729 36.7428 47.4673ZM39.1527 60.7831C39.3771 55.4735 38.4505 47.6928 37.7954 43.0247C36.9531 37.0251 37.9925 28.8273 37.9934 28.8137C38.6703 20.1842 40.7349 11.8799 41.5649 8.79705C42.3313 9.9822 43.5009 13.026 43.6169 20.6188C43.7933 32.1531 44.2988 56.9944 44.3781 60.8614C43.646 61.1695 41.8647 61.6556 39.1527 60.7831Z" fill="#DBA750"/>
</svg>
