<svg width="47" height="66" viewBox="0 0 47 66" fill="none" xmlns="http://www.w3.org/2000/svg">
<path d="M0 3.83721L8.225 0" transform="translate(6.2666 7.67432)" stroke="white" stroke-width="2"/>
<path d="M0 3.58356L7.33908 0" transform="translate(35.46 5.93408) scale(1.01019 0.989701) rotate(45)" stroke="white" stroke-width="2"/>
<path d="M6.26667 0C4.07333 1.22791 1.175 0.767442 0 0.383721" transform="translate(39.5586 56.4072)" stroke="white" stroke-width="2"/>
<path d="M7.0352 0C4.57288 1.38139 1.3191 0.86337 0 0.431685" transform="matrix(0.975068 0.221908 -0.230708 0.973023 0.990234 55.1597)" stroke="white" stroke-width="2"/>
<path d="M0.823361 1.62172C0.605993 1.62172 0.393567 1.53577 0.240422 1.38495C0.0871119 1.23251 -9.44776e-07 1.02493 -9.44776e-07 0.810861C-9.44776e-07 0.596794 0.0871119 0.389214 0.240422 0.236772C0.393567 0.0857891 0.605993 -1.22738e-06 0.823361 -1.22738e-06C1.03908 -1.22738e-06 1.25151 0.0857891 1.40449 0.236772C1.5578 0.387592 1.64672 0.596794 1.64672 0.810861C1.64672 1.02493 1.5578 1.23397 1.40449 1.38495C1.25151 1.53577 1.03908 1.62172 0.823361 1.62172Z" transform="translate(24.8711 32.0269)" fill="white"/>
<path d="M0.823361 1.62172C0.605993 1.62172 0.393567 1.53577 0.240422 1.38495C0.0871119 1.23251 -9.44776e-07 1.02493 -9.44776e-07 0.810861C-9.44776e-07 0.596794 0.0871119 0.389214 0.240422 0.236772C0.393567 0.0857891 0.605993 -1.22738e-06 0.823361 -1.22738e-06C1.03908 -1.22738e-06 1.25151 0.0857891 1.40449 0.236772C1.5578 0.387592 1.64672 0.596794 1.64672 0.810861C1.64672 1.02493 1.5578 1.23397 1.40449 1.38495C1.25151 1.53577 1.03908 1.62172 0.823361 1.62172Z" transform="translate(24.8711 37.6045)" fill="white"/>
<path d="M0.823361 1.62172C0.605993 1.62172 0.393567 1.53577 0.240422 1.38495C0.0871119 1.23251 -9.44776e-07 1.02493 -9.44776e-07 0.810861C-9.44776e-07 0.596794 0.0871119 0.389214 0.240422 0.236772C0.393567 0.0857891 0.605993 -1.22738e-06 0.823361 -1.22738e-06C1.03908 -1.22738e-06 1.25151 0.0857891 1.40449 0.236772C1.5578 0.387592 1.64672 0.596794 1.64672 0.810861C1.64672 1.02493 1.5578 1.23397 1.40449 1.38495C1.25151 1.53577 1.03908 1.62172 0.823361 1.62172Z" transform="translate(24.8711 42.9766)" fill="white"/>
<path d="M46.2117 20.5938C46.0175 8.1722 42.9431 6.69497 42.2479 6.52112C37.6971 5.30483 29.648 0.182282 29.5673 0.130549C29.4339 0.0454083 29.2781 0 29.119 0H17.8811C17.7221 0 17.5664 0.0454083 17.4329 0.130711C17.3522 0.182282 9.30532 5.30418 4.75229 6.52112C4.05688 6.69513 0.982444 8.17236 0.78846 20.5938C0.593652 33.0547 0.0061008 61.055 0.000172591 61.3364C-0.00559094 61.614 0.133228 61.8753 0.368051 62.0289C0.446764 62.0803 1.73483 62.8968 4.03185 62.8967C4.91367 62.8965 5.94847 62.7703 7.11682 62.4393C7.16672 62.9028 7.22847 63.3397 7.3057 63.7377C7.35609 63.9962 7.53048 64.2145 7.7737 64.3233C7.9415 64.3985 11.5676 66 15.3793 66C15.775 66 16.6383 65.9359 16.6721 65.9285C16.8109 65.8975 18.9223 65.3904 21.0135 63.2567H25.9861C28.0773 65.3902 30.1887 65.8973 30.3276 65.9285C30.3613 65.9361 31.2244 66 31.6204 66C35.4317 66 39.0582 64.3985 39.2261 64.3233C39.4693 64.2145 39.6437 63.996 39.6941 63.7377C39.7715 63.3404 39.8329 62.9046 39.8828 62.4421C41.0522 62.7731 42.0855 62.8968 42.9681 62.8968C45.2647 62.8967 46.5532 62.0806 46.6319 62.029C46.8669 61.8756 47.0057 61.6142 46.9998 61.3366C46.9941 61.055 46.4065 33.0547 46.2117 20.5938ZM29.338 5.17606C29.6231 4.07037 29.8075 3.0949 29.895 2.25128C30.3001 2.49827 30.7885 2.79212 31.3419 3.11712L32.2534 5.57176L30.9019 6.30381C30.6571 6.43646 30.4972 6.68248 30.4776 6.9572C30.4578 7.23192 30.5812 7.49772 30.8048 7.66298L32.3371 8.79478C30.928 13.9817 26.6354 21.3223 24.3236 25.0542V23.7777C25.4419 19.6993 28.1023 9.96664 29.338 5.17606ZM28.2978 1.62173C28.252 2.46308 28.0663 3.51979 27.742 4.77679C26.7387 8.66617 24.7926 15.8263 23.5001 20.5554C22.2076 15.8264 20.2615 8.66617 19.2581 4.77679C18.9331 3.51671 18.7504 2.46308 18.7056 1.62173H28.2978ZM16.5227 6.9572C16.5031 6.68248 16.3432 6.43646 16.0984 6.30381L14.7469 5.57176L15.6584 3.11712C16.2118 2.79212 16.7003 2.49827 17.1054 2.25128C17.1925 3.09458 17.3771 4.07037 17.6623 5.17622C18.8978 9.96664 21.5583 19.6993 22.6767 23.7777V25.0542C20.3649 21.3223 16.0724 13.9817 14.6633 8.79478L16.1955 7.66298C16.4192 7.49772 16.5425 7.23192 16.5227 6.9572ZM6.99661 60.7863C4.21974 61.6614 2.4011 61.1684 1.65727 60.8622C1.73796 56.9976 2.25487 32.1543 2.43502 20.6189C2.55375 13.0259 3.74894 9.98204 4.53179 8.79705C5.37969 11.8787 7.48849 20.179 8.18077 28.8138C8.18192 28.8273 9.24373 37.0253 8.38315 43.0249C7.71359 47.6938 6.76673 55.4766 6.99661 60.7863ZM16.35 64.336C13.2794 64.6115 9.9673 63.4479 8.84917 63.0084C8.32403 59.6587 8.74461 53.8899 9.26678 49.1386C10.4824 49.5761 11.6618 49.6965 12.5836 49.6965C13.6286 49.6965 14.3428 49.5439 14.4042 49.5302C14.7217 49.4599 14.9672 49.2122 15.0311 48.8983L15.9177 44.5314C15.9622 44.3117 15.9126 44.0834 15.7802 43.9011C15.6478 43.7186 15.4448 43.5983 15.2192 43.5686L10.063 42.8911C10.8537 36.8201 9.8927 29.217 9.82074 28.6659C9.07412 19.3809 6.71601 10.4783 5.97531 7.85045C8.26031 7.1064 11.0699 5.69258 13.4338 4.38579L12.9574 5.66842C12.8178 6.04433 12.9778 6.46452 13.3339 6.65734L14.1869 7.11937L13.2367 7.82126C12.9745 8.01473 12.854 8.34297 12.9296 8.65677C14.6101 15.6453 21.5836 26.4497 22.6765 28.1158V57.1799C20.8459 62.9818 16.8361 64.2078 16.35 64.336ZM9.45879 47.4676C9.59003 46.3731 9.72095 45.3681 9.83968 44.4977L14.1305 45.0614L13.5292 48.0245C12.7229 48.1124 11.0874 48.1631 9.45879 47.4676ZM22.3451 61.6348C22.7548 61.0395 23.146 60.3669 23.5002 59.6021C23.8543 60.3669 24.2455 61.0395 24.6554 61.6348H22.3451ZM38.151 63.0084C37.0322 63.4482 33.7218 64.6121 30.6508 64.336C30.1484 64.203 26.1511 62.9734 24.3234 57.1853V28.1158C25.4165 26.4497 32.3899 15.6451 34.0704 8.65677C34.146 8.3428 34.0254 8.01473 33.7633 7.82126L32.8131 7.11937L33.6661 6.65734C34.0221 6.46436 34.1822 6.04433 34.0426 5.66842L33.5663 4.38579C35.9302 5.69258 38.7397 7.10624 41.0247 7.85045C40.2841 10.4783 37.926 19.3809 37.1792 28.6659C37.1074 29.217 36.1464 36.8201 36.937 42.8911L31.7808 43.5686C31.5552 43.5983 31.352 43.7186 31.2198 43.9011C31.0874 44.0834 31.0378 44.3115 31.0823 44.5314L31.9689 48.8983C32.0327 49.2122 32.2783 49.46 32.5958 49.5302C32.6572 49.5439 33.3712 49.6965 34.4164 49.6965C35.3382 49.6965 36.5174 49.5761 37.733 49.1381C38.2555 53.8893 38.6763 59.6586 38.151 63.0084ZM37.5415 47.4673C35.9213 48.1571 34.2789 48.1083 33.4708 48.0224L32.8698 45.0614L37.1606 44.4977C37.2794 45.3681 37.4103 46.3729 37.5415 47.4673ZM40.0039 60.7831C40.2331 55.4735 39.2864 47.6928 38.617 43.0247C37.7564 37.0251 38.8184 28.8273 38.8194 28.8137C39.511 20.1842 41.6205 11.8799 42.4685 8.79705C43.2515 9.9822 44.4466 13.026 44.5651 20.6188C44.7453 32.1531 45.2619 56.9944 45.3429 60.8614C44.5948 61.1695 42.7748 61.6556 40.0039 60.7831Z" fill="#DBA750"/>
<path d="M0 0L1.56667 3.45349M32.9 0L31.725 3.06977" transform="translate(7.0498 6.90674)" stroke="white" stroke-width="2"/>
<path d="M1.56667 0L0 3.45349" transform="translate(36.4248 6.13965)" stroke="white" stroke-width="2"/>
<path d="M0 0L1.175 2.68605" transform="translate(9.40039 6.13965)" stroke="white" stroke-width="2"/>
</svg>
