<svg width="43" height="74" viewBox="0 0 43 74" fill="none" xmlns="http://www.w3.org/2000/svg">
<path d="M12.5 4.5L14.5 14.5101C11.4834 17.5067 5.16239 23.5 4.01062 23.5C2.85884 23.5 2.63946 21.2104 2.67374 20.0656L0 0" transform="translate(21.5 49.5)" stroke="#DBA750" stroke-width="2"/>
<path d="M12.931 4.40426L15 14.2014C11.8794 17.1342 5.34041 23 4.14892 23C2.95743 23 2.73048 20.7591 2.76594 19.6387L0 0" transform="translate(21 50) scale(-1 1)" stroke="#DBA750" stroke-width="2"/>
<path d="M0.753288 1.37601C0.55442 1.37601 0.360072 1.30308 0.21996 1.17511C0.0796981 1.04577 -8.64369e-07 0.869637 -8.64369e-07 0.688004C-8.64369e-07 0.50637 0.0796981 0.330242 0.21996 0.200897C0.360072 0.0727908 0.55442 -1.04141e-06 0.753288 -1.04141e-06C0.950649 -1.04141e-06 1.145 0.0727908 1.28496 0.200897C1.42522 0.328866 1.50658 0.50637 1.50658 0.688004C1.50658 0.869637 1.42522 1.04701 1.28496 1.17511C1.145 1.30308 0.950649 1.37601 0.753288 1.37601Z" transform="translate(22.7549 27.1743)" fill="white"/>
<path d="M0.753288 1.37601C0.55442 1.37601 0.360072 1.3017 0.21996 1.1736C0.0796981 1.04563 -8.64369e-07 0.868126 -8.64369e-07 0.688006C-8.64369e-07 0.506373 0.0796981 0.328866 0.21996 0.200897C0.360072 0.072791 0.55442 1.31017e-06 0.753288 1.31017e-06C0.950649 1.31017e-06 1.145 0.072791 1.28496 0.200897C1.42522 0.328866 1.50658 0.506373 1.50658 0.688006C1.50658 0.868126 1.42522 1.04577 1.28496 1.1736C1.145 1.3017 0.950649 1.37601 0.753288 1.37601Z" transform="translate(22.7549 36.4731)" fill="white"/>
<path d="M6.0698 3.98699L3.73672 0.340837L3.73385 0.342351C3.67057 0.243416 3.46417 3.3594e-07 3.10139 3.3594e-07C2.83744 3.3594e-07 2.57861 0.117924 2.43609 0.340837L0.103001 3.98699C-0.0331935 4.19972 -0.0344005 4.46281 0.0998356 4.67664C0.234222 4.89034 0.483411 5.02216 0.753239 5.02216H5.41956C5.68939 5.02216 5.93858 4.89034 6.07296 4.67664C6.2072 4.46281 6.20599 4.19985 6.0698 3.98699ZM2.06607 3.64615L3.08632 2.05149L4.10658 3.64615H2.06607Z" transform="translate(26.8945 14.9731)" fill="white"/>
<path d="M42.2788 17.4735C42.1012 6.93399 39.2884 5.68058 38.6523 5.53307C34.4889 4.50106 27.1247 0.154663 27.0509 0.110769C26.9289 0.0385283 26.7863 0 26.6408 0H16.3593C16.2138 0 16.0714 0.0385283 15.9492 0.110906C15.8754 0.154663 8.51337 4.50051 4.34784 5.53307C3.71161 5.68072 0.898832 6.93412 0.721357 17.4735C0.543129 28.0464 0.00558168 51.8043 0.000158004 52.043C-0.00511502 52.2786 0.12189 52.5003 0.336728 52.6306C0.408742 52.6742 1.58719 53.367 3.68871 53.3669C4.49548 53.3667 5.44222 53.2597 6.51113 52.9788C6.55678 53.3721 6.61328 53.7428 6.68394 54.0805C6.73004 54.2998 6.88959 54.485 7.11211 54.5773C7.26563 54.6412 10.5831 56 14.0704 56C14.4324 56 15.2223 55.9456 15.2532 55.9393C15.3802 55.913 17.3119 55.4828 19.2251 53.6723H23.7745C25.6878 55.4826 27.6195 55.9129 27.7465 55.9393C27.7774 55.9458 28.567 56 28.9293 56C32.4163 56 35.7341 54.6412 35.8877 54.5773C36.1103 54.485 36.2698 54.2997 36.3159 54.0805C36.3867 53.7433 36.4429 53.3736 36.4886 52.9812C37.5584 53.262 38.5038 53.367 39.3113 53.367C41.4124 53.3669 42.5913 52.6745 42.6633 52.6307C42.8783 52.5005 43.0053 52.2787 42.9998 52.0431C42.9946 51.8043 42.457 28.0464 42.2788 17.4735ZM26.8412 4.39181C27.102 3.45365 27.2707 2.62598 27.3507 1.91018C27.7213 2.11974 28.1682 2.36908 28.6745 2.64483L29.5084 4.72755L28.272 5.34869C28.048 5.46124 27.9017 5.66998 27.8837 5.90308C27.8657 6.13618 27.9785 6.3617 28.1831 6.50192L29.585 7.46224C28.2958 11.8633 24.3686 18.0916 22.2535 21.2581V20.175C23.2766 16.7145 25.7107 8.45654 26.8412 4.39181ZM25.8895 1.37601C25.8476 2.08988 25.6777 2.98649 25.381 4.05304C24.4631 7.35312 22.6826 13.4283 21.5001 17.4409C20.3176 13.4285 18.5371 7.35312 17.6191 4.05304C17.3217 2.98388 17.1546 2.08988 17.1137 1.37601H25.8895ZM15.1166 5.90308C15.0986 5.66998 14.9523 5.46124 14.7283 5.34869L13.4919 4.72755L14.3257 2.64483C14.8321 2.36908 15.279 2.11974 15.6496 1.91018C15.7293 2.6257 15.8982 3.45365 16.1591 4.39195C17.2895 8.45654 19.7235 16.7145 20.7468 20.175V21.2581C18.6317 18.0916 14.7045 11.8633 13.4153 7.46224L14.8172 6.50192C15.0218 6.3617 15.1346 6.13618 15.1166 5.90308ZM6.40115 51.5763C3.86061 52.3188 2.19675 51.9005 1.51623 51.6407C1.59005 48.3616 2.06296 27.2824 2.22778 17.4949C2.33641 11.0522 3.42988 8.46961 4.14611 7.46416C4.92184 10.0789 6.85117 17.1215 7.48453 24.4481C7.48559 24.4595 8.45703 31.4154 7.66969 36.5059C7.05712 40.4675 6.19083 47.0711 6.40115 51.5763ZM14.9585 54.5881C12.1492 54.8219 9.11902 53.8346 8.09605 53.4617C7.61561 50.6195 8.00039 45.7248 8.47812 41.6934C9.59028 42.0646 10.6693 42.1667 11.5127 42.1667C12.4687 42.1667 13.1221 42.0372 13.1783 42.0257C13.4688 41.9659 13.6934 41.7558 13.7519 41.4894L14.563 37.7843C14.6037 37.5978 14.5584 37.4041 14.4372 37.2494C14.3161 37.0946 14.1303 36.9925 13.9239 36.9673L9.20655 36.3924C9.93001 31.2413 9.05077 24.7902 8.98493 24.3226C8.30185 16.4444 6.14443 8.89067 5.46677 6.66099C7.5573 6.02967 10.1278 4.83007 12.2905 3.72128L11.8547 4.80957C11.7269 5.12852 11.8733 5.48505 12.1991 5.64866L12.9795 6.04068L12.1102 6.63622C11.8703 6.80038 11.76 7.07888 11.8292 7.34514C13.3667 13.2748 19.7467 22.4422 20.7466 23.8559V48.5163C19.0718 53.4391 15.4033 54.4794 14.9585 54.5881ZM8.65379 40.2755C8.77386 39.3468 8.89363 38.4941 9.00226 37.7556L12.9279 38.2339L12.3777 40.748C11.6401 40.8226 10.1438 40.8657 8.65379 40.2755ZM20.4434 52.2962C20.8182 51.7911 21.1762 51.2204 21.5002 50.5715C21.8241 51.2204 22.1821 51.7911 22.5571 52.2962H20.4434ZM34.9041 53.4617C33.8805 53.8349 30.8518 54.8224 28.0422 54.5881C27.5826 54.4752 23.9255 53.432 22.2534 48.5208V23.8559C23.2534 22.4422 29.6333 13.2746 31.1708 7.34514C31.2399 7.07874 31.1297 6.80038 30.8898 6.63622L30.0205 6.04068L30.8009 5.64866C31.1266 5.48491 31.2731 5.12852 31.1453 4.80957L30.7096 3.72128C32.8723 4.83007 35.4427 6.02954 37.5332 6.66099C36.8557 8.89067 34.6983 16.4444 34.0151 24.3226C33.9494 24.7902 33.0701 31.2413 33.7934 36.3924L29.076 36.9673C28.8696 36.9925 28.6837 37.0946 28.5628 37.2494C28.4416 37.4041 28.3963 37.5977 28.437 37.7843L29.2481 41.4894C29.3066 41.7558 29.5312 41.9661 29.8216 42.0257C29.8778 42.0372 30.5311 42.1667 31.4873 42.1667C32.3307 42.1667 33.4096 42.0646 34.5217 41.6929C34.9998 45.7242 35.3847 50.6194 34.9041 53.4617ZM34.3465 40.2752C32.8642 40.8606 31.3615 40.8192 30.6222 40.7462L30.0723 38.2339L33.998 37.7556C34.1067 38.4941 34.2264 39.3467 34.3465 40.2752ZM36.5993 51.5735C36.809 47.0685 35.9429 40.4666 35.3305 36.5058C34.5431 31.4153 35.5147 24.4595 35.5156 24.448C36.1484 17.1259 38.0783 10.08 38.8542 7.46416C39.5706 8.46975 40.6639 11.0524 40.7724 17.4947C40.9372 27.2814 41.4098 48.3589 41.4839 51.64C40.7995 51.9014 39.1344 52.3138 36.5993 51.5735Z" fill="#DBA750"/>
</svg>
