<svg width="65" height="24" viewBox="0 0 65 24" fill="none" xmlns="http://www.w3.org/2000/svg">
<path d="M1.54505 1.87003L2.89248 3.17297C3.08112 3.01662 3.29671 2.8342 3.48535 2.67785C2.83858 2.15668 2.27266 1.68762 1.94928 1.45309C2.05707 1.11433 1.92233 0.697383 1.59895 0.384678C1.16777 -0.0322623 0.547956 -0.136497 0.197625 0.202267C-0.125757 0.514973 -0.0449125 1.11432 0.386264 1.55732C0.736595 1.87003 1.22167 2.00033 1.54505 1.87003ZM0.521007 0.488916C0.655749 0.358622 1.00608 0.410738 1.27557 0.671326C1.54505 0.931914 1.59895 1.27068 1.46421 1.40097C1.32946 1.53127 0.979133 1.47915 0.709648 1.21856C0.440162 0.957974 0.386264 0.619209 0.521007 0.488916Z" transform="translate(29.418 16.5781)" fill="white"/>
<path d="M-4.11202e-07 0.65147L3.12603 3.67429C3.12603 3.67429 3.53026 2.5277 2.7218 1.74594C2.42537 1.45929 1.56301 0.755705 0.673713 7.95251e-07L-4.11202e-07 0.65147Z" transform="translate(33.5771 20.3262)" fill="white"/>
<path d="M5.7872 0.390289C5.46382 0.702995 5.32907 1.146 5.43687 1.4587C4.49367 2.18835 1.179 4.84634 0.505284 5.49781C-0.303172 6.27957 0.101056 7.42616 0.101056 7.42616L5.84109 1.87564C6.19142 2.00594 6.64955 1.87564 6.99988 1.53688C7.43106 1.11994 7.53885 0.520586 7.18852 0.181822C6.83819 -0.130883 6.21837 -0.0266511 5.7872 0.390289ZM6.64955 1.25023C6.38006 1.51082 6.02973 1.56293 5.89499 1.43264C5.76025 1.30235 5.81414 0.963585 6.08363 0.702998C6.35311 0.44241 6.70345 0.390289 6.83819 0.520583C6.97293 0.624818 6.91904 0.963583 6.64955 1.25023Z" transform="translate(29.7305 16.5723)" fill="white"/>
<path d="M-4.11202e-07 2.5277V0H1.80555V0.390882H0.565918V1.01629H1.58996V1.38112H0.565918V2.13682H1.85945V2.5277H-4.11202e-07Z" transform="translate(16.8701 18.292)" fill="white"/>
<path d="M1.02404 -1.5905e-06C1.15879 -1.5905e-06 1.29353 0 1.42827 0.0260588C1.56301 0.0521175 1.7247 0.104235 1.8325 0.156353L1.69776 0.521174C1.56301 0.469056 1.45522 0.442999 1.32048 0.41694C1.18574 0.390882 1.07794 0.39088 0.997095 0.39088C0.889301 0.39088 0.781507 0.41694 0.72761 0.469057C0.646764 0.521175 0.619815 0.599353 0.619815 0.703588C0.619815 0.755706 0.646765 0.781765 0.673714 0.833882C0.700662 0.859941 0.75456 0.885997 0.781508 0.912055C0.835405 0.938114 0.889302 0.964176 0.943199 0.964176C0.997096 0.990235 1.07794 0.990234 1.13184 1.01629C1.21268 1.04235 1.32048 1.06841 1.42827 1.09447C1.53607 1.12053 1.61691 1.17265 1.72471 1.22476C1.80555 1.27688 1.8864 1.35506 1.94029 1.45929C1.99419 1.56353 2.02114 1.66776 2.02114 1.82411C2.02114 2.05864 1.94029 2.24105 1.75165 2.37135C1.56301 2.50164 1.29353 2.57982 0.943199 2.57982C0.889302 2.57982 0.808455 2.57982 0.72761 2.57982C0.646764 2.57982 0.565918 2.55376 0.485073 2.55376C0.404227 2.5277 0.323383 2.5277 0.242538 2.50164C0.161692 2.47558 0.080846 2.44953 4.11202e-07 2.39741L0.134743 2.00653C0.323383 2.0847 0.485073 2.11076 0.619815 2.13682C0.754558 2.16288 0.889301 2.16288 0.970147 2.16288C1.13184 2.16288 1.23963 2.13682 1.32048 2.0847C1.40132 2.03258 1.42827 1.95441 1.42827 1.82411C1.42827 1.77199 1.42827 1.71988 1.40132 1.69382C1.37437 1.66776 1.34743 1.61564 1.32048 1.58959C1.29353 1.56353 1.23963 1.53747 1.18574 1.53747C1.13184 1.51141 1.07794 1.51141 1.02404 1.48535C0.889301 1.45929 0.781508 1.43323 0.646765 1.38111C0.538971 1.35506 0.431176 1.30294 0.35033 1.25082C0.269484 1.1987 0.18864 1.12053 0.134743 1.04235C0.080846 0.964173 0.0538966 0.859939 0.0538966 0.729645C0.0538966 0.495116 0.134743 0.312707 0.296434 0.182413C0.458125 0.0521191 0.700661 -1.5905e-06 1.02404 -1.5905e-06Z" transform="translate(19.6465 18.2676)" fill="white"/>
<path d="M0.835405 2.5277V0.390882H-8.22404e-07V0H2.20978V0.390882H1.40132V2.5277H0.835405Z" transform="translate(22.4209 18.2939)" fill="white"/>
<path d="M0.592868 0.260589C0.592868 0.338765 0.565919 0.390882 0.512022 0.442999C0.458125 0.495117 0.37728 0.521176 0.296435 0.521176C0.188641 0.521176 0.134743 0.495117 0.0808456 0.442999C0.0269485 0.390882 -8.22404e-07 0.338765 -8.22404e-07 0.260589C-8.22404e-07 0.182412 0.0269485 0.130295 0.0808456 0.0781779C0.134743 0.0260604 0.215589 7.95251e-07 0.296435 7.95251e-07C0.404229 7.95251e-07 0.458125 0.0260604 0.512022 0.0781779C0.565919 0.130295 0.592868 0.182412 0.592868 0.260589Z" transform="translate(25.251 20.3262)" fill="white"/>
<path d="M0.538969 0.443001L-1.64481e-06 0.495118V0.156353L0.592869 -1.5905e-06H1.07794V2.44953H0.538969V0.443001Z" transform="translate(40.3965 18.3984)" fill="white"/>
<path d="M1.32048 1.40717C1.13184 1.51141 0.943197 1.56353 0.754557 1.56353C0.646763 1.56353 0.538971 1.53747 0.458126 1.51141C0.37728 1.48535 0.296432 1.43323 0.215587 1.38112C0.134741 1.329 0.0808464 1.25082 0.0538979 1.14659C8.23207e-07 1.04235 1.64481e-06 0.938114 1.64481e-06 0.80782C1.64481e-06 0.677527 0.0269469 0.547236 0.0808439 0.46906C0.134741 0.364824 0.188641 0.286648 0.269487 0.208472C0.350332 0.130295 0.458124 0.0781763 0.565918 0.0521175C0.673712 0.0260588 0.808457 7.95251e-07 0.9432 7.95251e-07C1.13184 7.95251e-07 1.26658 0.0260604 1.40132 0.0781779C1.53607 0.130295 1.61691 0.20847 1.69776 0.312705C1.7786 0.41694 1.8325 0.521174 1.85945 0.677527C1.8864 0.80782 1.91334 0.964176 1.91334 1.12053C1.91334 1.30294 1.8864 1.48535 1.85945 1.66776C1.80555 1.82411 1.75166 1.98047 1.67081 2.11076C1.58996 2.24105 1.45522 2.31923 1.32048 2.39741C1.18574 2.47558 0.997097 2.50164 0.808457 2.50164C0.673715 2.50164 0.56592 2.50164 0.458126 2.47558C0.350332 2.44953 0.269484 2.42347 0.215587 2.42347L0.323383 2.05864C0.404229 2.0847 0.485073 2.11076 0.565918 2.11076C0.646764 2.11076 0.72761 2.11076 0.781507 2.11076C0.889301 2.11076 0.997096 2.0847 1.05099 2.03259C1.13184 1.98047 1.18573 1.92835 1.23963 1.85017C1.29353 1.772 1.32048 1.71988 1.34743 1.6417C1.32048 1.56353 1.32048 1.48535 1.32048 1.40717ZM0.485072 0.781764C0.485072 0.833882 0.485074 0.885997 0.512022 0.938114C0.512022 0.990232 0.53897 1.04235 0.565918 1.06841C0.592867 1.09447 0.646766 1.12053 0.673715 1.14659C0.727612 1.17264 0.781508 1.17265 0.862354 1.17265C0.916251 1.17265 0.997096 1.17264 1.05099 1.14659C1.10489 1.12053 1.15879 1.12053 1.18574 1.09447C1.21268 1.06841 1.26658 1.06841 1.26658 1.04235C1.29353 1.01629 1.32048 1.01629 1.32048 1.01629V0.938114C1.32048 0.885997 1.32048 0.807824 1.29353 0.729647C1.29353 0.651471 1.26658 0.59935 1.23963 0.547233C1.21268 0.495115 1.15879 0.443 1.10489 0.390882C1.05099 0.364824 0.970145 0.338766 0.8893 0.338766C0.754557 0.338766 0.646766 0.364823 0.592868 0.442999C0.512023 0.573293 0.485072 0.677529 0.485072 0.781764Z" transform="translate(43.0088 18.3711)" fill="white"/>
<path d="M0 0.390882V7.95251e-07H1.67081V0.338766L0.673713 2.44952H0.161693L1.15879 0.390882H0Z" transform="translate(45.9473 18.3711)" fill="white"/>
<path d="M1.15879 0.964173C1.23963 0.964173 1.32048 0.990235 1.42827 1.01629C1.50912 1.04235 1.58996 1.09447 1.64386 1.14659C1.69776 1.19871 1.75165 1.27688 1.80555 1.35505C1.85945 1.43323 1.85945 1.53747 1.85945 1.66776C1.85945 1.79806 1.8325 1.92835 1.7786 2.03258C1.7247 2.13682 1.64386 2.215 1.56302 2.29317C1.48217 2.37135 1.37437 2.42347 1.23963 2.44953C1.10489 2.47559 0.970146 2.50164 0.835403 2.50164C0.727609 2.50164 0.565918 2.47559 0.431175 2.44953C0.269484 2.42347 0.134743 2.37135 8.22404e-07 2.31923L0.134743 1.95441C0.296435 2.00652 0.404227 2.03259 0.512021 2.05864C0.619815 2.0847 0.700664 2.0847 0.754561 2.0847C0.916252 2.0847 1.07794 2.05864 1.15879 1.98047C1.26658 1.90229 1.29353 1.79806 1.29353 1.66776C1.29353 1.56353 1.23963 1.45929 1.15879 1.38112C1.07794 1.30294 0.916249 1.27688 0.70066 1.27688C0.673712 1.27688 0.646766 1.27688 0.619818 1.27688C0.592869 1.27688 0.565918 1.27688 0.512021 1.27688C0.512021 1.25082 0.512021 1.25082 0.512021 1.22476C0.512021 1.1987 0.512024 1.17265 0.485075 1.14659C0.485075 1.12053 0.485074 1.09447 0.458125 1.06841C0.458125 1.04235 0.458125 1.01629 0.458125 1.01629C0.512022 0.964176 0.538971 0.938117 0.592868 0.886C0.646765 0.833882 0.700664 0.781763 0.754561 0.729646C0.808458 0.677528 0.862352 0.625409 0.916249 0.573291C0.970146 0.521174 1.02404 0.469056 1.05099 0.442998C1.05099 0.442998 1.05099 0.443 1.05099 0.416941C1.05099 0.416941 1.05099 0.41694 1.05099 0.390881H0.0808472V-7.95251e-07H1.69776C1.69776 0.026058 1.69776 0.0260588 1.69776 0.0781763C1.69776 0.104235 1.69776 0.130292 1.72471 0.18241C1.72471 0.208469 1.72471 0.23453 1.75166 0.286647C1.75166 0.312706 1.75165 0.338766 1.7786 0.364824L1.15879 0.964173Z" transform="translate(48.5889 18.3457)" fill="white"/>
<path d="M5.41665 5.39417V4.92511C6.14426 4.95117 6.79103 4.95117 7.35695 4.95117C7.89592 4.95117 8.46184 4.95117 9.05471 4.92511V5.28993C8.86607 5.34205 8.70438 5.42023 8.54268 5.47234C8.48879 5.86323 8.46184 6.20199 8.46184 6.46258C8.46184 6.67105 8.48879 7.03587 8.54268 7.63522C7.76118 7.92187 7.08746 8.10428 6.54849 8.18246C6.00952 8.28669 5.47055 8.33881 4.90463 8.33881C3.36857 8.33881 2.15588 7.94793 1.29353 7.19222C0.431177 6.41046 0 5.42023 0 4.19546C0 2.91858 0.458125 1.92835 1.32048 1.14659C2.20978 0.390881 3.47636 7.95251e-07 5.14717 7.95251e-07C5.74004 7.95251e-07 6.30596 0.0521183 6.84493 0.130295C7.3839 0.208471 7.89592 0.364823 8.38099 0.547235L8.43489 0.62541C8.3271 1.12053 8.24625 1.71988 8.1654 2.44952H7.65338C7.65338 2.0847 7.62643 1.772 7.57254 1.48535C7.33 1.1987 6.97967 0.990233 6.60239 0.833881C6.19816 0.703587 5.74004 0.62541 5.17412 0.62541C4.15007 0.62541 3.34162 0.938115 2.7218 1.53747C2.10199 2.13682 1.80555 2.9707 1.80555 4.01305C1.80555 5.13358 2.12893 6.01958 2.7757 6.69711C3.42246 7.37463 4.20397 7.7134 5.14717 7.7134C5.65919 7.7134 6.17121 7.60916 6.73713 7.34857C6.76408 7.06193 6.79103 6.77528 6.79103 6.51469C6.79103 5.91534 6.76408 5.60264 6.68324 5.52446C6.62934 5.47234 6.19816 5.42023 5.41665 5.39417Z" fill="white"/>
<path d="M0 8.13034V7.63522C0.458125 7.60916 0.72761 7.55705 0.808456 7.53099C0.862353 7.50493 0.889302 7.47887 0.91625 7.42675C0.943199 7.32251 0.997096 7.00981 0.997096 6.48863C1.02404 5.65475 1.02404 5.00328 1.02404 4.53423C1.02404 3.88276 1.02404 3.07493 0.997096 2.0847C0.970147 1.35506 0.943198 0.885998 0.889301 0.729646C0.862353 0.677528 0.835405 0.651469 0.781508 0.62541C0.727611 0.599351 0.458125 0.547234 0 0.495116V-7.95251e-07C0.835404 0.026058 1.34743 0.0521179 1.58996 0.0521179L4.58125 -7.95251e-07C5.22801 -7.95251e-07 5.71309 0.0521179 6.00952 0.182412C6.30596 0.312706 6.54849 0.495116 6.71018 0.755704C6.87187 1.01629 6.97967 1.329 6.97967 1.69382C6.97967 2.16288 6.84493 2.55376 6.57544 2.91858C6.30596 3.25735 5.82088 3.57005 5.12022 3.8567L6.3868 5.70687L7.3839 7.1401C7.57254 7.37463 7.70728 7.50493 7.81507 7.55704C7.89592 7.60916 8.05761 7.63522 8.2732 7.63522V8.07822H7.92287C6.89882 8.07822 6.25206 8.10428 5.95562 8.10428C5.60529 7.55704 5.09327 6.80134 4.39261 5.78505L3.15298 3.98699C3.17993 3.90882 3.20687 3.8567 3.23382 3.77852C3.39551 3.80458 3.50331 3.80458 3.58415 3.80458C3.96143 3.80458 4.31176 3.64823 4.68904 3.36158C5.03937 3.07493 5.22801 2.658 5.22801 2.11076C5.22801 1.6417 5.09327 1.27688 4.79684 1.01629C4.5004 0.755704 4.09618 0.62541 3.53026 0.62541C3.34162 0.62541 3.09908 0.65147 2.80265 0.677529L2.7757 2.39741L2.7218 4.56028C2.7218 5.0554 2.74875 5.68081 2.7757 6.43652C2.80265 7.00981 2.8296 7.32252 2.88349 7.40069C2.91044 7.45281 2.93739 7.47887 3.01824 7.53099C3.09908 7.5831 3.36857 7.60916 3.82669 7.63522V8.13034C3.09908 8.10428 2.47926 8.07822 1.91334 8.07822C1.29353 8.07822 0.673713 8.10428 0 8.13034Z" transform="translate(12.5312 0.103516)" fill="white"/>
<path d="M-8.22404e-07 7.63522C0.377279 7.60916 0.619817 7.5831 0.700663 7.53099C0.75456 7.50493 0.862354 7.34857 0.970148 7.08799C1.21268 6.59287 1.53607 5.88928 1.91335 5.00329L4.04228 -3.97625e-07H4.93158L7.62643 6.20199C7.97676 6.98375 8.19235 7.42675 8.2732 7.47887C8.35404 7.55704 8.59658 7.60916 9.02776 7.63522V8.15639C8.38099 8.13034 7.76118 8.10428 7.19526 8.10428C6.4946 8.10428 5.84783 8.13034 5.22801 8.15639V7.63522C5.71309 7.60916 5.98257 7.5831 6.06342 7.55705C6.14426 7.53099 6.17121 7.47887 6.17121 7.37463C6.17121 7.29646 6.09037 7.06193 5.92868 6.64499L5.52445 5.68081C5.03937 5.68081 4.47346 5.65475 3.85364 5.65475C3.31467 5.65475 2.8296 5.65475 2.39842 5.68081L2.12893 6.33228C2.04809 6.51469 1.96724 6.77528 1.85945 7.11405C1.8325 7.19222 1.8325 7.2704 1.8325 7.32251C1.8325 7.40069 1.85945 7.47887 1.94029 7.50493C2.02114 7.53099 2.29063 7.5831 2.7757 7.60916V8.13034C2.37147 8.10428 1.8864 8.07822 1.32048 8.07822C0.754559 8.07822 0.323382 8.10428 -8.22404e-07 8.13034V7.63522ZM3.90754 2.03258L2.64096 5.00329C3.01824 5.02934 3.42246 5.02934 3.85364 5.02934C4.31176 5.02934 4.76989 5.02934 5.17412 5.00329L3.90754 2.03258Z" transform="translate(23.7686 0.078125)" fill="white"/>
<path d="M-8.22404e-07 8.15639V7.66128C0.485073 7.63522 0.781506 7.60916 0.862351 7.55705C0.916248 7.53099 0.970145 7.47887 0.997094 7.40069C1.05099 7.29646 1.07794 6.98375 1.07794 6.41046C1.10489 5.47234 1.10489 4.79481 1.10489 4.32576V1.87623C1.10489 1.22476 1.07794 0.85994 1.05099 0.755704C1.02405 0.703587 0.997095 0.651469 0.943198 0.625411C0.862352 0.573293 0.56592 0.547234 0.0269493 0.495117V-3.97625e-07C0.646765 0.0260584 1.10489 0.026058 1.40132 0.026058C1.7247 0.026058 2.10199 0.0260584 2.53316 -3.97625e-07C3.44941 1.14659 4.5004 2.37135 5.65919 3.70035C6.4407 4.58634 7.08746 5.31599 7.65338 5.88928V3.59611C7.65338 2.73617 7.65338 1.98047 7.62643 1.35506C7.59948 0.990234 7.57254 0.755704 7.51864 0.677527C7.49169 0.62541 7.4378 0.599353 7.3839 0.573294C7.33 0.547235 7.03357 0.521175 6.54849 0.495117V-3.97625e-07C6.97967 0.0260584 7.41085 0.026058 7.84202 0.026058C8.43489 0.026058 8.97386 0.0260584 9.43198 -3.97625e-07V0.495117C9.00081 0.521175 8.73132 0.547235 8.62353 0.599352C8.56963 0.625411 8.54268 0.651469 8.48879 0.677527C8.46184 0.703586 8.43489 0.755704 8.40794 0.807821C8.38099 0.912056 8.35404 1.1987 8.35404 1.69382L8.3271 4.01305V6.33228C8.3271 6.95769 8.35404 7.5831 8.38099 8.20852L8.30015 8.28669C7.81507 8.20851 7.46474 8.1564 7.2761 8.13034C6.25206 7.03587 5.01242 5.65475 3.5572 3.98699C2.82959 3.15311 2.23673 2.44953 1.7786 1.87623V4.11729C1.7786 4.71664 1.7786 5.47234 1.80555 6.33228C1.80555 6.95769 1.8325 7.32252 1.8864 7.42675C1.91334 7.47887 1.94029 7.50493 1.96724 7.53099C2.04809 7.5831 2.31757 7.60916 2.82959 7.63522V8.13034C2.18283 8.10428 1.72471 8.07822 1.45522 8.07822C1.26658 8.10428 0.781507 8.13034 -8.22404e-07 8.15639Z" transform="translate(35.7607 0.078125)" fill="white"/>
<path d="M0.404229 8.13034V7.81763C0.673714 7.66128 0.862353 7.55704 0.997096 7.47887C1.05099 6.80134 1.07794 5.52446 1.07794 3.67429C1.07794 2.86647 1.07794 2.18894 1.05099 1.6417C1.02404 1.09447 0.997094 0.781764 0.970145 0.703587C0.943197 0.677529 0.916252 0.62541 0.889303 0.62541C0.835406 0.599351 0.538971 0.547234 8.22404e-07 0.495116V-7.95251e-07C0.592869 0.026058 1.29353 0.0260596 2.07504 0.0260596L5.01243 -7.95251e-07C6.09037 -7.95251e-07 6.89882 0.130293 7.46474 0.390881C8.03066 0.651469 8.46184 1.04235 8.78522 1.58959C9.1086 2.13682 9.27029 2.78829 9.27029 3.54399C9.27029 4.53423 9.02776 5.39417 8.51573 6.09775C8.00371 6.8274 7.3839 7.32252 6.65629 7.63522C5.92868 7.94793 5.14717 8.10428 4.31177 8.10428L2.04809 8.05216C1.67081 8.07822 1.13184 8.10428 0.404229 8.13034ZM2.8296 7.42675C3.15298 7.47887 3.50331 7.50493 3.85364 7.50493C4.74294 7.50493 5.41666 7.37463 5.87478 7.1401C6.33291 6.90557 6.71019 6.48863 7.00662 5.9414C7.30305 5.36811 7.43779 4.69058 7.43779 3.88276C7.43779 2.81435 7.14136 1.98047 6.57544 1.43323C6.06342 0.938115 5.22801 0.677529 4.09618 0.677529C3.85364 0.677529 3.42246 0.703587 2.80265 0.729646L2.74875 4.32576C2.7757 5.83717 2.80265 6.85346 2.8296 7.42675Z" transform="translate(48.4531 0.103516)" fill="white"/>
<path d="M0.0269477 8.15639V7.66128C0.565918 7.63522 0.889303 7.5831 0.9432 7.53099C1.02405 7.47887 1.05099 7.32251 1.07794 7.06193C1.10489 6.54075 1.13184 5.60264 1.13184 4.22152C1.13184 3.70035 1.13184 2.91858 1.10489 1.90229C1.10489 1.22476 1.07794 0.833881 1.05099 0.755704C1.02404 0.677528 0.997096 0.65147 0.91625 0.599352C0.835404 0.547235 0.538972 0.521175 1.64481e-06 0.495117V-3.97625e-07C0.808458 0.0260584 1.45522 0.0521183 1.8864 0.0521183C2.64096 0.0521183 3.31467 0.0260584 3.90754 -3.97625e-07V0.495117C3.36857 0.521175 3.04518 0.573293 2.99129 0.625411C2.91044 0.677528 2.88349 0.807822 2.85654 0.990234C2.82959 1.35506 2.80265 2.11076 2.80265 3.23129C2.80265 4.7427 2.80265 5.78505 2.8296 6.3844C2.8296 6.98375 2.88349 7.32251 2.93739 7.45281C2.96434 7.50493 3.01824 7.53098 3.09908 7.5831C3.17993 7.60916 3.44941 7.63522 3.93448 7.66128V8.15639L3.23383 8.13034C2.7757 8.10428 2.39842 8.10428 2.04809 8.10428L0.0269477 8.15639Z" transform="translate(61.0654 0.078125)" fill="white"/>
<path d="M0 3.51793C0.161691 3.51793 0.269485 3.49188 0.323382 3.46582C0.350331 3.43976 0.404228 3.38764 0.458125 3.25735C0.565919 3.02282 0.700662 2.71011 0.889301 2.29317L1.85945 -7.95251e-07H2.26368L3.50331 2.84041C3.665 3.20523 3.77279 3.38764 3.79974 3.43976C3.82669 3.46581 3.96143 3.49187 4.15007 3.51793V3.75246C3.85364 3.72641 3.58415 3.7264 3.31467 3.7264C2.99129 3.7264 2.69485 3.72641 2.42537 3.75246V3.51793C2.64096 3.51793 2.7757 3.49188 2.80265 3.49188C2.8296 3.46582 2.85654 3.43976 2.85654 3.4137C2.85654 3.38764 2.8296 3.25735 2.74875 3.07493L2.56011 2.63194C2.34452 2.63194 2.07504 2.63194 1.80555 2.63194C1.56301 2.63194 1.34743 2.63194 1.13184 2.63194L1.02404 2.91858C0.997096 2.99676 0.943199 3.12705 0.91625 3.28341C0.91625 3.30946 0.889301 3.36158 0.889301 3.38764C0.889301 3.43976 0.91625 3.46582 0.943199 3.46582C0.970147 3.49188 1.10489 3.49187 1.32048 3.51793V3.75246C1.13184 3.72641 0.91625 3.7264 0.646765 3.7264C0.404228 3.7264 0.18864 3.72641 0.0538971 3.75246V3.51793H0ZM1.80555 0.938117L1.21268 2.29317C1.37437 2.29317 1.56301 2.29317 1.7786 2.29317C1.99419 2.29317 2.18283 2.29317 2.39842 2.29317L1.80555 0.938117Z" transform="translate(0.134766 10.7891)" fill="white"/>
<path d="M0.862353 3.72641V3.49187C0.970147 3.49187 1.07794 3.49188 1.18574 3.46582C1.23963 3.46582 1.26658 3.43976 1.29353 3.4137C1.32048 3.38764 1.32048 3.36158 1.34743 3.30946C1.34743 3.23129 1.37438 2.94464 1.37438 2.47558C1.37438 2.13682 1.37438 1.772 1.37438 1.43323C1.37438 0.729646 1.37438 0.364822 1.37438 0.364822C1.37438 0.338763 1.29353 0.338766 1.18574 0.338766C0.943199 0.338766 0.700662 0.338763 0.53897 0.364822C0.431176 0.364822 0.377279 0.390882 0.35033 0.390882C0.323382 0.390882 0.323382 0.41694 0.323382 0.442999C0.323382 0.469058 0.296434 0.625411 0.269485 0.912058H0.0269489C0.0269489 0.573294 0.0269483 0.286645 -2.05601e-07 0.0260572L0.0269489 7.95251e-07C0.592868 0.0260596 1.15879 0.0521175 1.69776 0.0521175C2.23673 0.0521175 2.85654 0.0260596 3.53026 7.95251e-07L3.55721 0.0521175C3.53026 0.286646 3.50331 0.573294 3.47636 0.912058H3.26077C3.23382 0.625411 3.23382 0.442998 3.20688 0.416939C3.20688 0.39088 3.15298 0.390881 3.12603 0.364822C2.99129 0.338763 2.69485 0.338766 2.26368 0.338766C2.23673 0.338766 2.20978 0.338763 2.20978 0.364822C2.20978 0.364822 2.20978 0.41694 2.20978 0.495116L2.18283 2.26711C2.18283 2.78829 2.18283 3.101 2.20978 3.20523C2.20978 3.33552 2.23673 3.38764 2.26368 3.4137C2.29063 3.43976 2.42537 3.43976 2.69485 3.46582V3.70035C2.42537 3.67429 2.12893 3.67429 1.8325 3.67429C1.42827 3.70034 1.10489 3.72641 0.862353 3.72641Z" transform="translate(11.1299 10.8135)" fill="white"/>
<path d="M0.161692 3.77852V3.62217C0.269486 3.57005 0.350332 3.51793 0.431177 3.46582C0.458126 3.17917 0.485074 2.60588 0.485074 1.71988C0.485074 1.12053 0.485074 0.729647 0.458126 0.521177C0.458126 0.416942 0.431176 0.338765 0.404227 0.312706C0.377279 0.286647 0.242536 0.260588 -8.22404e-07 0.234529V1.5905e-06C0.431176 0.0260604 0.781507 0.026058 1.02404 0.026058L2.53316 1.5905e-06C2.69485 1.5905e-06 2.8296 -7.96027e-07 2.96434 0.026058L2.99129 0.0521184C2.96434 0.23453 2.91044 0.495118 2.91044 0.833882H2.69485C2.69485 0.573294 2.6679 0.442998 2.6679 0.41694C2.6679 0.390881 2.61401 0.390882 2.53316 0.364823C2.37147 0.338764 2.15588 0.312706 1.8325 0.312706C1.67081 0.312706 1.50912 0.312704 1.29353 0.338763C1.26658 0.885997 1.26658 1.329 1.23963 1.6417C1.42827 1.6417 1.61691 1.66776 1.7786 1.66776C2.02114 1.66776 2.18283 1.66776 2.23673 1.6417C2.26368 1.6417 2.29062 1.61565 2.29062 1.56353C2.29062 1.53747 2.31757 1.43323 2.31757 1.22476H2.56011C2.56011 1.51141 2.53316 1.71988 2.53316 1.79806L2.56011 2.39741H2.31757C2.31757 2.16288 2.29063 2.03259 2.26368 2.00653C2.26368 1.98047 2.23673 1.98047 2.18283 1.95441C2.10199 1.92835 1.8864 1.92835 1.56302 1.92835C1.45522 1.92835 1.34743 1.92835 1.21268 1.95441C1.21268 2.05865 1.21268 2.13682 1.21268 2.24105C1.21268 2.73617 1.21268 3.12705 1.23963 3.4137H1.7786C2.07504 3.4137 2.37147 3.38764 2.61401 3.36158C2.66791 3.20523 2.69485 3.02282 2.74875 2.81435H2.96434C2.91044 3.12705 2.91044 3.43976 2.88349 3.7264C2.7218 3.7264 2.56011 3.75246 2.39842 3.75246C2.29063 3.75246 2.10199 3.75246 1.80555 3.75246C1.53607 3.75246 1.26658 3.75246 1.05099 3.75246C0.808456 3.75246 0.485074 3.77852 0.161692 3.77852Z" transform="translate(21.7471 10.7617)" fill="white"/>
<path d="M0.161692 3.70035V3.57005C0.269486 3.51794 0.350331 3.46582 0.458125 3.4137C0.485074 2.94464 0.485073 2.44953 0.485073 1.92835C0.485073 1.51141 0.485073 1.14658 0.485073 0.781762C0.485073 0.521174 0.458125 0.364822 0.458125 0.338763C0.458125 0.312704 0.431177 0.286646 0.404229 0.286646C0.37728 0.286646 0.242538 0.260589 8.22404e-07 0.23453V-1.5905e-06C0.350332 -1.5905e-06 0.673714 0.0260588 0.970147 0.0260588C1.26658 0.0260588 1.53607 0.0260572 1.80555 -1.5905e-06V0.23453C1.56301 0.260589 1.40132 0.260588 1.37438 0.286646C1.34743 0.312705 1.34743 0.338762 1.32048 0.39088C1.32048 0.442998 1.29353 0.729645 1.29353 1.25082L1.26658 2.5277C1.26658 2.76223 1.26658 3.04888 1.29353 3.36158C1.53607 3.36158 1.69776 3.38764 1.8325 3.38764C2.18283 3.38764 2.45232 3.36158 2.69485 3.30947C2.74875 3.15311 2.80265 2.9707 2.8296 2.73617H3.07213C3.01823 2.99676 2.99129 3.30947 2.96434 3.70035C2.80265 3.70035 2.64096 3.7264 2.47926 3.7264L1.48217 3.70035H1.05099C0.835404 3.67429 0.538971 3.70035 0.161692 3.70035Z" transform="translate(31.8799 10.8398)" fill="white"/>
<path d="M0 3.75246V3.51793C0.242537 3.51793 0.40423 3.49188 0.431178 3.46582C0.458127 3.43976 0.485074 3.36158 0.485074 3.25735C0.512023 3.02282 0.51202 2.57982 0.51202 1.95441C0.51202 1.71988 0.51202 1.35506 0.51202 0.886C0.51202 0.573295 0.512023 0.390883 0.485074 0.364824C0.485074 0.338766 0.458127 0.312706 0.431178 0.286647C0.40423 0.260588 0.242538 0.260589 0.0269502 0.234531V-7.95251e-07C0.40423 -7.95251e-07 0.700663 0.0260596 0.889302 0.0260596C1.23963 0.0260596 1.53607 0.026058 1.8325 -7.95251e-07V0.234531C1.58996 0.260589 1.45522 0.260588 1.40132 0.286647C1.37437 0.312706 1.34743 0.364821 1.34743 0.442997C1.32048 0.59935 1.32048 0.964173 1.32048 1.48535C1.32048 2.16288 1.32048 2.65799 1.32048 2.91858C1.32048 3.17917 1.34743 3.36158 1.37438 3.4137C1.37438 3.43976 1.40132 3.46582 1.45522 3.46582C1.48217 3.49188 1.61691 3.49187 1.8325 3.51793V3.75246H1.50912C1.29353 3.75246 1.13184 3.75246 0.970149 3.75246H0Z" transform="translate(42.0391 10.7881)" fill="white"/>
<path d="M0.16169 3.77852V3.62217C0.269485 3.57005 0.35033 3.51793 0.431176 3.46582C0.458124 3.17917 0.485072 2.60588 0.485072 1.71988C0.485072 1.12053 0.485074 0.729647 0.458126 0.521177C0.458126 0.416942 0.431178 0.338765 0.40423 0.312706C0.377281 0.286647 0.242538 0.260588 1.64481e-06 0.234529V1.5905e-06C0.431178 0.0260604 0.781506 0.026058 1.02404 0.026058L2.53316 1.5905e-06C2.69485 1.5905e-06 2.8296 -7.96027e-07 2.96434 0.026058L2.99129 0.0521184C2.96434 0.23453 2.91044 0.495118 2.91044 0.833882H2.6679C2.6679 0.573294 2.64095 0.442998 2.64095 0.41694C2.64095 0.390881 2.58706 0.390882 2.50621 0.364823C2.34452 0.338764 2.12894 0.312706 1.80555 0.312706C1.64386 0.312706 1.48217 0.312704 1.26658 0.338763C1.23963 0.885997 1.23963 1.329 1.21269 1.6417C1.40133 1.6417 1.58997 1.66776 1.75166 1.66776C1.99419 1.66776 2.15588 1.66776 2.20978 1.6417C2.23673 1.6417 2.26368 1.61565 2.26368 1.56353C2.26368 1.53747 2.29063 1.43323 2.29063 1.22476H2.53316C2.53316 1.51141 2.50621 1.71988 2.50621 1.79806L2.53316 2.39741H2.29063C2.29063 2.16288 2.26368 2.03259 2.23673 2.00653C2.23673 1.98047 2.20978 1.98047 2.15588 1.95441C2.07504 1.92835 1.85945 1.92835 1.53607 1.92835C1.42827 1.92835 1.32048 1.92835 1.18574 1.95441C1.18574 2.05865 1.18574 2.13682 1.18574 2.24105C1.18574 2.73617 1.18574 3.12705 1.21269 3.4137H1.75166C2.04809 3.4137 2.34452 3.38764 2.58706 3.36158C2.64096 3.20523 2.6679 3.02282 2.7218 2.81435H2.93739C2.88349 3.12705 2.88349 3.43976 2.85654 3.7264C2.69485 3.7264 2.53316 3.75246 2.37147 3.75246C2.26368 3.75246 2.07504 3.75246 1.7786 3.75246C1.50912 3.75246 1.23963 3.75246 1.02404 3.75246C0.808454 3.75246 0.512021 3.77852 0.16169 3.77852Z" transform="translate(50.96 10.7617)" fill="white"/>
<path d="M0.0269477 3.72641V3.49187C0.242536 3.46582 0.350331 3.46582 0.377279 3.43976C0.404228 3.43976 0.404227 3.4137 0.431176 3.38764C0.458124 3.33552 0.458126 3.20523 0.458126 2.9707C0.458126 2.60588 0.458126 2.29317 0.458126 2.0847C0.458126 1.79806 0.458126 1.40717 0.458126 0.964175C0.458126 0.625411 0.431178 0.416942 0.40423 0.338766C0.40423 0.312707 0.377278 0.286645 0.350329 0.286645C0.323381 0.260586 0.21559 0.260587 1.64481e-06 0.234528V7.95251e-07C0.377281 7.95251e-07 0.619817 0.0260572 0.727611 0.0260572L2.10198 7.95251e-07C2.39842 7.95251e-07 2.61401 0.0260604 2.74875 0.0781779C2.88349 0.130295 2.99129 0.234531 3.07213 0.338766C3.15298 0.469059 3.17993 0.599353 3.17993 0.781764C3.17993 0.990234 3.12603 1.17264 2.99129 1.329C2.85654 1.48535 2.64096 1.6417 2.31757 1.74594L2.91044 2.60588L3.36857 3.25735C3.44941 3.36158 3.53026 3.43976 3.55721 3.43976C3.6111 3.46582 3.665 3.46582 3.7728 3.46582V3.67429H3.6111C3.15298 3.67429 2.85654 3.67429 2.7218 3.70035C2.56011 3.46582 2.31758 3.10099 2.02114 2.63193L1.45522 1.79805C1.48217 1.772 1.48217 1.74594 1.50912 1.69382C1.58996 1.69382 1.64386 1.69382 1.67081 1.69382C1.8325 1.69382 1.99419 1.61564 2.18283 1.48535C2.34452 1.35506 2.42537 1.17265 2.42537 0.912058C2.42537 0.703588 2.37147 0.521174 2.23673 0.416939C2.10198 0.286645 1.91335 0.234528 1.64386 0.234528C1.56301 0.234528 1.45522 0.23453 1.32048 0.260589L1.29353 1.04235L1.26658 2.03259C1.26658 2.26711 1.26658 2.55376 1.29353 2.89252C1.32048 3.15311 1.32048 3.30947 1.34743 3.33552C1.34743 3.36158 1.37438 3.38764 1.40132 3.38764C1.42827 3.4137 1.56301 3.4137 1.7786 3.43976V3.67429C1.45522 3.64823 1.15879 3.64823 0.91625 3.64823C0.619816 3.70035 0.35033 3.72641 0.0269477 3.72641Z" transform="translate(61.0654 10.8135)" fill="white"/>
</svg>
